<svg width="13" height="14" viewBox="0 0 13 14" fill="none" xmlns="http://www.w3.org/2000/svg">
<path d="M6.17933 13.3292C6.02312 13.4854 5.76985 13.4854 5.61364 13.3291L5.33135 13.0469C5.17514 12.8906 5.17514 12.6374 5.33135 12.4812L9.52948 8.28305C9.78146 8.03106 9.603 7.6002 9.24664 7.6002H0.569196C0.348282 7.6002 0.169196 7.42112 0.169196 7.2002V6.80144C0.169196 6.58052 0.348282 6.40144 0.569196 6.40144H9.24664C9.603 6.40144 9.78146 5.97058 9.52948 5.71859L5.33135 1.52047C5.17514 1.36426 5.17514 1.11099 5.33135 0.954781L5.61364 0.672491C5.76985 0.516281 6.02312 0.516281 6.17933 0.672491L12.2248 6.71798C12.381 6.87419 12.381 7.12745 12.2248 7.28366L6.17933 13.3292Z" fill="#AC873E"/>
</svg>
