<?xml version="1.0" encoding="utf-8"?><svg viewBox="0 0 182 21" xmlns="http://www.w3.org/2000/svg" xmlns:xlink="http://www.w3.org/1999/xlink"><style>:root>svg{display:none}:root>svg:target{display:block}</style><svg viewBox="0 0 182 21" id="435" xmlns="http://www.w3.org/2000/svg"><path d="M9.524 4.278c-.033.102.267.188.86.246.035-.101-.285-.188-.86-.246Zm30.25 2.407c-.003.068-.014.138-.019.207.341.027.693.05 1.03.077.337.027.732.083.74.003-.398-.031-.766-.041-1.027-.13-.261-.088-.062-.13-.724-.157Zm-.573-.2-.617.214-1.473-.218c.148.186.809.288 1.757.344l.333-.34Zm-3.271-.1-.573.011.873.07.273.177.032-.311-.58-.046-.025.1Zm-2.324-.13c-.061.046.177.184.568.202.006-.052.013-.104.017-.156l-.585-.047Zm9.105.646c-.012.008-.005.017.007.027l-.597-.018c.401.17 1.273.199 2.03.277.465.048.564.057.877.008-.245-.024-.489-.05-.734-.075l-.125-.115c-.49-.043-.709-.006-1.029.03l.157-.092c-.194-.015-.387-.026-.58-.042h-.006Zm-14.43-.936.297.025c.004-.034.009-.069.012-.104l-.298-.025-.011.104Zm131.403 9.033c.415-.117.806-.22 1.145-.331.195-.063.376-.128.543-.2.412.05.912-.154 1.352-.243 1.218-.25 2.473-.534 3.462-.813.996-.283.837-.257 1.866-.512.732-.202 1.6-.404 2.795-.974-.148.071-.128.055-.116.052-.02-.027-.061-.038.073-.137l-.027.001.022-.01c-.177.086-.1.048-.086.048l.122-.037.287-.087.623-.186c.099-.03.186-.09.258-.11.6-.169 1.112-.256 1.741-.482.393-.21.28-.278.956-.498-.078.084-.162.169-.237.25.433-.155.847-.36 1.267-.516.238-.089.47-.132.61-.184 1.193-.444 1.817-.805 2.593-1.394a5.467 5.467 0 0 0 1.15-.587c.132-.123.257-.25.399-.422.173-.217.323-.402.508-.845.178-.431.288-1.142.028-1.821-.268-.671-.606-.944-.909-1.175.35.251.798.584 1.047 1.465.212.855-.053 1.54-.236 1.906a2.645 2.645 0 0 0 .337-1.83 2.571 2.571 0 0 0-.83-1.47 2.824 2.824 0 0 0-.388-.292 3.38 3.38 0 0 0-.318-.175c-.227-.11-.364-.156-.53-.214-.471-.15-.481-.189-.897-.276-.979-.177-1.777-.21-2.641-.242a23.696 23.696 0 0 0-.517-.01c-.005.051-.006.104-.008.156a22.794 22.794 0 0 0-.58-.052c-.199-.016-.336-.031-.514-.045l.144.153a31.786 31.786 0 0 0-1.079-.129c-.215.111-.381.222-.57.333-.36-.014-.057-.175-.465-.216-.353-.034-.391.03-.779.046-.341.015-.343-.067-.878-.05a67.64 67.64 0 0 0-1.173.05c-.409.02-.837.046-1.131.071-.71.062-1.153.17-1.791.207-.817.045-1.509.087-2.401.146a9.079 9.079 0 0 0-1.105.204c-.28-.105-1.193 0-1.574-.02-.369-.02-.021-.122-.508-.12-.064.035-.19.079-.259.116-.216-.002-.043-.044-.397-.024-.351.02-1.541.114-1.917.156-.557.067-.462.14-1.068.156.007-.034-.006-.068-.008-.102l-1.31.067c.002.034.002.069.003.104-1.528-.14-2.812-.146-4.408.16-.433-.006-.763-.051-1.214-.037-1.142.034-2.625.191-3.73.261-.828.053-1.371.073-2.077.035-.232.095-.488.19-.73.286 0-.069-.004-.14-.002-.208-.45-.013-.65.062-1.048.08-.386.019-.154-.072-.693-.066-.198.003-1.127.042-1.642.055-.904.022-1.977.038-2.99.055-.864.015-1.79.133-1.8.33-.001.03.376-.018.153.067-.35.132-1.136.298.706.247-.018.059-.009.105 0 .16.783-.134 1.628-.006.655.076-.364.03-1.735-.075-1.949-.141-.533-.167.366-.317.04-.507-.046-.03-1.562-.12-1.841-.12-.398 0-.402.045-.626.058-.402.023-.435-.042-.856-.026-.483.018-1.007.107-1.575.09.188.066.389.13.582.195-.973.024-.957-.158-1.619-.224l-.629.115-.715-.012c-.759.142-1.788.427.294.23.043.103-.077.177.055.285.091.073.402.11-.211.188-.042-.067-.103-.136-.148-.204-.873 0-1.044-.168-1.298-.29-.106-.05.371-.123.126-.154-.38-.049-.945.099-.837.167-.107.003-.196.004-.296.005-.003-.034-.001-.068-.007-.103-.587.038-1.067-.03-1.594-.028-.435.001-.48.059-.914.068-.812.016-.912-.069-1.891-.075-.412-.003-2.075.104-2.784.112-.181.002-.271-.047-.581-.028-.704.043-1.478.168-1.342.317-.152-.033-.289-.067-.434-.101.362-.069.747-.112.724-.214-.718.078-1.368-.013-2.154.018-.183.007-.517.123-.745.1-.01-.05.018-.104-.012-.154-.223-.03-.88.04-.968.04-.598.004-1.098.052-1.497.06-.4.006-.661-.094-.888-.088-.674.017-1.029.129-1.485.198-.041-.034-.098-.069-.146-.103l-.861-.003c0 .034-.01.07-.008.104-.671-.088-1.048-.12-1.947-.112-.507.005-.737.056-1.151-.057-.211.031-.397.06-.591.09-1.404-.115-2.507.052-3.929.075a1.8 1.8 0 0 0-.016.103l-.59-.034.596-.174c-.463-.026-.9.03-1.306.034-.647.006-1.06-.054-1.638-.074-.005.033-.016.066-.023.1l-1.284.087-1.166-.228-.623.09-.555-.06.138.21-1.61-.396-.607.248c-.25-.075-.488-.15-.726-.225-.38.01-.763.02-1.147.028l-.022.102-.717-.07c-.001.035-.007.07-.002.105-.458-.07-.798-.136-1.458-.134-.363.002-1.698.012-1.968-.012-.86-.076-.83-.16-1.718-.148.005.032-.018.065-.024.098-.623.035-1.249.069-1.877.102l.03-.103.417-.039c-.541-.051-1.092-.102-1.63-.155-1.004.055-1.82-.054-2.932-.04-.48.005-.918.113-1.594.031-.018-.031-.005-.068-.016-.102-.685-.042-1.717.007-2.324.039-.442.023-.348.075-.875-.01-.148.047-.307.092-.46.138l-.133-.214c-.718.042-1.1.011-1.62-.122l-.443.059c.422.092.25.13-.168.175-.251-.02-.16-.08-.288-.118-.517-.15-.787-.11-1.433-.132-1.044-.035-1.881-.1-2.928-.117-.197-.003-.449.04-.735.009-.015.052-.013.103-.021.155-.726-.09-1.204-.226-2.049-.26l-.024.1-1.16-.06v-.104l-.731.063c-.432-.057-.865-.114-1.299-.173-.1.147.553.103 1.01.214.188.045.258.125.419.177-.484-.025-.967-.053-1.451-.08-.099-.091-.168-.183-.285-.275-.35-.041-1.295-.019-1.555-.034-2.036-.121-3.715-.275-5.68-.348-.271-.01-.423-.08-.849-.103-.547-.029-1.498-.003-2.025.024-.302-.052-.574-.105-.865-.158-.408.023-.815.047-1.226.068-.57-.046-1.176-.142-1.731-.168-.689-.034-.94.02-1.587-.114a5.855 5.855 0 0 1-.156.094c-.98-.173-1.967-.183-2.929-.162-.041-.055-.092-.112-.127-.166-.731-.09-.954.006-1.662-.034-.352-.02-.609-.124-1.168-.121-.354.002-.581.07-1.127-.045-.484.036-.332.144-1.087.076.093-.308-1.256-.188-1.44-.196-1.08-.05-1.437-.132-2.317-.167.008-.036.017-.068-.013-.104-.59-.094-1.68-.095-2.131-.13a118.32 118.32 0 0 1-3.21-.281c-1.13-.117-1.467-.072-2.42-.12-.805-.04-1.478-.148-2.316-.198-.18-.011-.465.017-.731-.022-.02.034-.02.066-.034.1-1.05-.222-1.866-.267-3.014-.337-.657-.04-1.169-.09-1.846-.137-.263-.018-.44-.099-.795-.12-.27-.016-.66.004-1.03-.056a.258.258 0 0 0-.03.1C13.307.91 13.008.944 12.166.881c-.61-.045-.718-.09-1.564-.174-.96-.095-2.815-.259-3.93-.345C6.07.316 5.365.348 4.897.306c-.469-.043-.317-.1-.78-.123.23.162-.316.146-.56.231-.633.223-.694.56-.78.844-.022.073.375.126.288.172-.29-.035-.584-.066-.88-.098.094.089-.267.135-.331.192-.082.072.205.131.241.195l.008.001c.055.093-.154.103-.02.21.03.024-.039.067.038.098.502.199 1.362.239 1.462.088l.729.08-.014.104 1.331.04-.601.066c.14.06.284.118.423.178.475.003.934.074 1.446.095.51.02.522-.055 1.168.078.305.006.632-.067.897-.055.814.039.094.198.128.27-.484-.067-.962-.136-1.445-.205a5.874 5.874 0 0 1-.027.154c-.419-.036-1.19-.02-1.458-.134l.014-.073-.293-.032-.299.101-.891-.073-.03.206c-.537-.053-.987-.014-1.471-.136l1.188-.027c.083-.16-.31-.314-.968-.5-.42.033-.838.018-.736.156.038.05.506.212.47.258-.066.09-.663.063-.556.178.575.082 1.164.166 1.744.247l.72.234c.205-.05-.407-.155-.552-.217-.176-.075.23-.072.155-.14.615.055.932.124 1.304.246.419-.005.368-.062.471-.128.072-.047.565.03.725-.005.166.086-.264.072-.119.172.083.057.654.171.512.236.931.107 1.453.018 2.345.091l-.885.039 1.613.09c.593.178.2.254 1.303.344l-.613.145c.744.118 1.319.066 1.935.104 1.072.064 1.382.134 1.905-.003-.28-.123-.552-.247-.83-.37l.883.12c.055.155.713.102 1.021.069l-.275-.184c.789.202 1.1.33.978.513l.564.058a5.733 5.733 0 0 0-.005.155l1.16.112-.258-.104.42-.038.567.152.749.026c-.232.103-.022.237-.042.362.546.057 1.094.095 1.632.152.366.038.48.104.893.137.502.04 1.025.01 1.599.093-.033-.074-.42-.116-.777-.17-.358-.055-.464-.063-.375-.144a14.482 14.482 0 0 1-1.464-.135c.021.1-.047.11-.612.046.167-.057-.183-.134-.187-.199-.003-.064.342-.05.202-.137-.062-.038-.658-.154-.545-.184l1.034.147.125.17c1.052.07 1.53.264 2.476.385l.306-.077.117.272c.907.084 1.88.214 2.06.027l-1.172-.052-.269-.233c-.97-.104-1.946-.211-2.925-.319l.331-.283-1.468-.189-.022.155-2.799-.166-.705-.22 1.17.034c-.4-.127-.841-.165-1.443-.218.442-.095-.236-.267.48-.32l-.172.193.863.085c.007.034.012.067.017.1.695.064.58.113.54.213.417.05.662.069.598-.021-.037-.053-.344-.12-.134-.144.399.134.687.06 1.138.113.328.038.35.114.649.155.533.074 1.064.127 1.59.205-.031-.077.148-.12-.308-.212-.265-.054-.602-.02-.839-.13l.739-.006 1.017.195-.312.128 1.167.159c.014-.104-.107-.214.323-.26l-.578-.104 2.343.132-1.77.025.277.155c.795.087.332-.063.888-.025l-.001.105 1.154.102-.455.065c-.966-.165-1.346-.15-2.058-.082l-1.3-.168c-.111.077-.21.155-.329.231.312.044.473-.04.816-.027.16.006.71.075.954.083-.035-.037-.045-.1.158-.088.262.015.695.018.854.035.477.052.574.115 1.047.132.116-.155.976-.088 1.623-.119.077.052-.082.129-.319.127-.334-.003-.398-.057-.75-.033-.355.024-.647.148-1.151.155.665.105 1.344.206 2.01.308.126-.145.798-.142 1.61-.022.609-.014 1.913.102 2.233.007.049-.015-.225-.037-.175-.072.018-.012.206-.131.523-.08.287.117.566.239.85.356-.246.027-.464-.103-.587-.045-.068.032.14.094-.041.128.358.023.597.047.909.071l-.75.096-.146-.012c-.014-.052.046-.105-.015-.156-.07.013-.824.004-.81.062.005.021.218.04.145.068-.123.048-.835.066-.058.172.288.039.67.01.721-.042-.186-.034-.386-.067-.577-.101 1.427.126 2.161.035 3.105-.06.294.065.406.129.564.201.217.098.106.13.715.16.002-.056.163-.162-.133-.215-.413-.072-.785-.19-1.108-.234-.323-.044-.26.038-.59-.014-.266-.041-.395-.093-.751-.11l.269-.055-.408-.112c-.334-.036-.68-.072-1.01-.109.29-.024.969.04 1.272.083.3.042.473.153.76.16.197-.053-.227-.143-.202-.196.037-.075.576-.028.483-.128.197.071.374.14.562.21l-.255.162c.295-.01.588-.022.883-.034l-.597.11c.701.04 1.334.153 2.03.159l.285.155 1.48.241-.858-.25c-.07-.14-.013-.106.595-.087.017 0 .015-.042.15-.031.134.01.122.05.141.053.2.031.394.028.593.049l-.589.138c.311.101.193.155.83.197.01.033.02.066.032.099l1.147.194.758-.206.71.287-.598.087c.194.015.387.025.58.042h.007c.134-.068.244-.117.019-.207l.569.197c.412.035.637.06.578-.032l.886.032-.863-.114c-.078-.172-.51-.3.307-.37l-.548-.221-.743.103-.569-.197c-.417.04-.367.144-1.037.081l.124.218-.733-.054.31-.209-1.15-.298 1.454.238c-.017-.062-.032-.196.487-.164.198.012.412.081.698.04.008.056-.008.105-.008.158l.868.062a1.48 1.48 0 0 0 .01-.073l.585.064-.417-.24-.598.115-.132-.167-.884-.012c.152-.063-.166-.128-.197-.196-.021-.045.229-.04.237-.088.01-.072-.004-.16.014-.234l1.464.053c.057-.089-.01-.15-.428-.24l-.846-.01a660.97 660.97 0 0 0-.747-.158c-.106.097-.22.193-.322.29-.725-.094-.544-.202-.907-.327-.066-.022-.636-.046-.672-.105-.173.023-.306.047-.465.07l.874.17-1.038-.027-.433-.188a560.74 560.74 0 0 1-2.339-.234l.574.097-.311.185-.707-.16c-.459-.005-.212.083-.515.11-.302.027-1.063-.038-1.403-.003l-.887-.073.595-.057c-.09-.077-.179-.153-.272-.23.266.015.542.117.768.162.226.045.738.153.968.109-.934-.276-1.805-.38-3.06-.328l.017-.155-.765.17c.485.112.966.22 1.45.332-.365.007-.16.153-.758.062-.307-.047-.8-.257-1.112-.286-.658-.062-1.066-.058-1.667-.102.468-.045.92-.095 1.381-.143l-.156-.116c1.68.07.432-.251-.265-.285-.253.065-.516.13-.763.195-.571-.12-.33-.124-.168-.197.266-.118-.785-.101-1.128-.123-.016.051-.018.103-.026.155l-1.154-.154.592-.053c-1.173-.09-1.978-.272-2-.49l.705.272.462-.22-.567-.156.863.16.525.198-.265.108.856.126.024-.1 2.048.227.018-.156-.593.002-.432-.194-.168.09a660.47 660.47 0 0 1-1.16-.1c.346-.207 1.175-.11 2.216.08l.6-.044 1.02.186-.145-.116 1.042.034-.313.183.562.051.022.1c.64.043.939.127 1.44.224l-.27-.23c-.56-.035-.77.004-1.167-.122l.467-.04c-.051-.056-.1-.113-.15-.17.289.06.578.118.866.176l.315-.184.87.071c.007.086-.79-.036-.577.08.213.116.464.086.837.098.01.034.008.069.013.103l.863.07c-.412.081-.838.085-.17.249.352-.032.577-.05.75-.128.041-.018.244-.105.226-.132-.054-.083-.333-.133-.2-.202.094.042.193.083.289.126.385.024.66.103 1.013.134.265.023.368-.01.606.006.237.017.26.073.566.076.373.002.535-.08 1.056-.02l-.605.187.28.153.878.067-.168.196 1.037-.053c-.199-.07-.423-.12-.505-.198-.116-.111-.051-.242.26-.315l-.583-.046.011-.155 1.176.035-.323.29c.566-.021.682.054 1.164.137l.015-.104.718.104c-.042-.038-.103-.076-.13-.114.403.052.965.01 1.264.04.6.062.344.179.466.228.124.05.24.019.391.042a91.76 91.76 0 0 1 2.967.511l.463-.18c.224.075.624.043.845.12.22.078.102.22.74.296-.05-.069-.087-.144-.132-.215l1.008.22c.49-.003.977-.007 1.463-.012-.047.032-.11.064-.147.095.447.055.736-.033 1.01-.034.6-.002 1.013.12 1.432.126.556.006.482-.093 1.104-.034-.015.05-.01.104-.019.155l1.475.033.003-.052.584.032c.007-.086.016-.172.025-.259l.283.12.88-.028-.57-.136c.008-.06.445.02.565.001.251-.041-.238-.152-.111-.21l1.441.234.431.023.017-.155 1.18.01-.603.046c.028.096.2.177.282.278.04.049-.005.113.445.097.178-.006.348-.073.591-.06.386.02.649.05 1.025.038l.03-.098.886.018.294-.118.868.094.018-.102c.71.022 1.097.074 1.156.21.778.054 1.526.106 2.322.159l-.27-.43.882.093-.004.155c.5.031.706-.015 1.044-.056l1.023.171-.886-.012-.015.156-1.313-.001-.78.223.74.085c.055-.067.108-.135.164-.202l1.174.053.004.103.59.025.015-.104 1.02.094.4-.219-.24-.137-.575-.052c.603-.104 1.364-.077 2.202-.094.646.125.13.187.13.318l.703-.023.599.124c.336-.04.688-.077 1.038-.117.339.273 1.617.228 2.779.315.469.035.598.175 1.183.185.149-.062.3-.129.448-.193-.615.015-1.126-.027-1.752-.058l-.007-.154-.578-.022c-.198-.112.679-.189 1.188-.168-.093.124.619.213.275.322l1.178-.119.843.547.44-.248c.58-.052 1.194-.102 1.797-.154.002-.052-.002-.105.002-.157.387.081.867.147.709.253-.139.094-.834.027-1.124.055-.286.028-.087.104-.461.128h.002l-.005.002.547.125.913-.182 1.022.08c.101-.067.202-.135.304-.201l-.59.01.008-.13c.662-.018 1.11-.007 1.763.046l-.601.297 1.177-.127-.015.312.605-.27-.007-.08c-.85-.015-.63-.094-.128-.16.433.029.864.056 1.293.083l-.293.123c.288.05.568.1.865.15.743-.068.663-.232 1.498-.281.097.094-.877.162-.572.244.179.046.627-.055.856-.003-.289.02-.154.115-.475.118-.552.004-.791-.039-.718.09.61.027.773-.065 1.196-.104.303-.028.56.05.882.041l-.588-.063.31-.306 2.048.089c.118.067-.224.078-.256.133-.053.096.395.137-.05.226.396-.01.78-.022 1.17-.033l-.244-.082.247-.071-.577-.014.004-.155.871.014-.008.208 1.761-.026-.16.1c.384.226-.012.331-1.325.295l.584-.147-.72-.063c-.404.053-.485.11-.447.2l-.87-.013a2.782 2.782 0 0 1-.011.104l-1.168.032c.587.028 1.17.056 1.75.082l-.003.157c.543.018.603.005.605-.091l.562.003-.289-.107 1.469.047c-.41.083-1.223.09-1.196.216-.886.007-1.31-.061-1.881-.185l-.283-.004c-.433.062-.694.144-1.333.132.09-.052.217-.099.285-.153-.63.002-1.646-.203-2.13-.189-.982.03-.042.249-.247.35-1.031.028-.974-.165-1.591-.23-.509-.056-1.004-.021-1.448-.042-.32-.015-.386-.06-.623-.063-1.126-.019-1.912.15-3.082.118.302-.06.603-.122.903-.183-.49.005-.984.01-1.478.013-.009.033-.019.066-.026.1l-1.45-.042.008-.156-.297.095c-.51-.073-.799-.145-1.453-.15l.885-.128-1.16.017-.036.096c-.437.04-.875.079-1.315.117-.05-.036-.093-.073-.147-.109-.319-.03-.53.018-.763.019-.377.002-.48-.076-.835-.071-.267.004-.42.047-.76.022-.01.034-.016.068-.028.1-.328.017-.472-.061-.713-.065-.587-.009-.895.082-1.547.036.074.038.148.072.216.11-.281-.02-.75.005-.862-.069-.112-.074-.06-.082-.569-.096-.004-.035-.014-.067-.022-.102a15.535 15.535 0 0 0-1.595-.012c-.334.015-.14.097-.177.147l1.473.061c.023.178-.947.202-.91.38l.884.01c-.105.04-.193.079-.309.118-.236-.068-.876-.108-1.115-.153-.238-.046.032-.082-.067-.127-.055-.024-.215-.047-.239-.074-.05-.06.296-.067.244-.135-.023-.03-.249-.072-.263-.12-.019-.067.037-.161.025-.232-.411-.032-.651.025-1.041.008-.391-.018-.62-.095-1.038-.1l.583.157c-.2.034-.399.07-.6.103-.005-.05.137-.12-.14-.16-.159-.023-.435-.067-.556-.07-.469-.009-.702.037-1.184-.012l-.284-.118c-.147.046-.308.089-.443.136.34-.004 1.222.141.813.188-.31.035-.871-.136-1.266-.061-.45-.073-.873-.143-1.311-.212-.11.038.18.155.3.188.404.11.914.11.846.232l-1.465-.124-.014.155-.885-.044c.022.035.149.085.312.12.026.005.282.013.27.039-.013.028-.255.009-.272.013-.117.028.01.07-.033.103l-.145-.007c-.04-.038-.105-.073-.128-.112l.29.015h.002l.002-.052-.295.036c-.83-.126.073-.207.205-.266.134-.058-.214-.075-.213-.121 0-.074.545-.15.29-.218-.191-.05-.816-.022-.698.07.119.092-.172.207-.756.214-.103-.09.846-.124.292-.214-.441-.072-.972-.006-1.464-.055-.013-.102-.272-.174-.862-.202.457.185.144.337-.903.317l.282.171c-.68-.002-1.36-.004-2.045-.008l-.31.086-.281-.173 2.05.063c.108-.133.216-.266.326-.399l-.577-.084 1.164.011a11.16 11.16 0 0 0-2.021-.089c-.689.032-.397.003-1.076-.032-.364-.02-.847.028-1.296-.023-.06.15.225.294.55.45-.244.004-.497.005-.738.01-.351-.07-.043-.107-.199-.2a5.603 5.603 0 0 0-.668-.218 13.435 13.435 0 0 0-1.896-.219c-.012.034-.013.069-.023.103-.51-.095-1.01-.105-1.59-.15-.37-.03-.471-.092-.89-.112-.698-.032-1.178.022-1.882-.122.184.065.381.13.57.194a10.406 10.406 0 0 0-1.34-.04c-.1.004-.16.004-.265 0-.05-.043-.104-.086-.157-.13-.688-.063-1.379-.128-2.071-.193.172.127.744.308-.314.24.103-.063.205-.126.31-.188l-1.435-.154-.292-.124c.043.055.1.113.133.165-.16.046-.53-.015-.69.011-.338.056-.181.147-.943.083.321.087.05.072.067.134.017.063.802.235 1.08.182-.176-.056-.385-.114-.561-.171.314.032.893.085 1.13.132-.05-.007-.3-.13-.49-.16.12.013.256.031.38.045l.297-.025c.41.088.702.254-.186.14.238.046.167.108.462.135.653.061.962-.005 1.594.115-.079-.05.3-.158.587-.114.287.045.36.098.609.144-.261.052-.508.104-.763.156l-.733-.154a21.48 21.48 0 0 0-.167.197c-.197-.048-.383-.096-.573-.144l-.445.047c.602.194-.699.413.43.567.127.017.522-.023.672.086-.081.05-.217.105-.313.157l-.568-.037.422.186c.45-.125.92-.25 1.376-.375l.283.176c.685.048 1.146.008 1.774.119l.025-.26c.32.033.467.006.737.009.113 0 .191.046.28.048.496.007.846-.028 1.196-.069l.122.269.886-.048.536.556.31-.085c.603.107.98-.001 1.603.098.236-.035-.27-.124-.416-.156-.23-.05-.397-.017-.579-.071-.18-.055-.185-.157-.585-.21.186-.043.37-.08.555-.121l-.242-.146c.43.075.693.05 1.174.071-.06.095.023.173.577.244.195-.136.717-.219.63-.379.31.109.703.27.992.365.29.095.473.124.74.206-.198-.013-.39-.022-.586-.033-.062.139.193.286-.038.414.594-.012.464-.147 1.19-.088l-.304.086 1.168.17c.037-.103.151-.156-.574-.19l.306-.137-.73-.091-.743.059c.117-.135.737-.198.59-.356-.035-.036-.677-.128-.544-.164 1.11.054 1.411.218 1.44.396l.878.049c-.047-.037-.091-.075-.139-.112-.282.045-.578.034-.43-.052a2.14 2.14 0 0 1 .318-.128c.254-.068.545-.096 1.013-.085l-.434.03c-.235.197-.67.268.842.359-.004.051-.01.103-.013.155-.288-.05-.577-.1-.866-.152-.139.193.725.218 1.3.393.08.025-.03.16.119.203.407.015.7-.093 1.025-.091.757.005 1.224.122 1.937.144.071-.146-.552-.13-1.18-.164-.094-.126-.177-.253-.278-.378-.321-.018-1.12-.047-1.113-.144.002-.053.392-.089-.048-.179.398.019.788.042 1.189.062l.132.215 1.343-.035-.61.178.886.045.578.237c-.246-.205-.776-.36.03-.494l-1.013-.232c-.546.043-1.634.113-1.63-.086.597.096 1.032-.003 1.62.032.991.06.634.018 1.625.035.277.005 1.564.162 1.898.032.198.047.297.084.456.127-.486-.005-.971-.01-1.46-.017l-.02.156-.434-.067-.452.127c.544.04 1.116.086 1.65.124.532.038 1.037.07 1.555.106-.318.069-.842.048-1.3.02-.385-.023-1.015-.215-1.278-.157-.38.084 1.08.281.51.378.307.018.589.029.885.044-.092-.04-.199-.079-.28-.118.543.021 1.534.042 1.863-.015.375-.065-.01-.09.245-.179.213-.076.945-.196 1.297-.275-.043.064-.106.134-.158.2l.591.078-.896-.091c-.01.092-.682.182.223.266.246.022 1.393-.03 1.82.03.05-.034.023-.067.043-.1l1.463.06c.09-.042-.438-.107-.514-.154-.03-.018.204-.02.16-.045-.13-.077-.606-.112-.501-.202.285.099.576.197.863.296l.886-.069-.296.166.276.146.872-.018.011.103c.451.013.934.1 1.297.052l-.15.12c.626.13 1.587.315 1.48.032l.737.13a18.587 18.587 0 0 1-.138-.213l.894-.02c.018.072-.006.14-.163.202-.221.088-.727.128-.753.234.79.034 1.057-.115 1.649-.143.412-.02.662.038 1.033-.002.308-.033.367-.126.727-.157.543.026.703.084.72.177h.01l-.001.001c.191.003.38.013.572.018l.015-.156 1.167-.018c.067-.096-.04-.112-.581-.122l.303-.25 1.192.034-.585-.225c.397.045.789.093 1.187.137-.026-.103-.113-.258.45-.294.561-.036.373.056.458.108.288.01.584.017.874.025.085.125-.353.169-.637.265l.023.19.608-.14.565.011.018-.155 1.446.142.43.321c.053-.068.106-.137.16-.204.195-.003.38.02.578.008.018-.002.011-.043.144-.04.135.003.12.043.145.046.151.021.26-.002.415.019.484.065.727.133 1.37.126-.147-.053-.243-.066-.59-.064.103-.085.204-.17.308-.254-.298.011-.597.023-.896.033.256-.066.134-.102.01-.18.324-.068.666-.072 1.18-.059.008-.033.016-.066.026-.1l.878.016c-.004.052-.002.104-.008.157-.865-.115-1.586 0-.726.086.353.035.75-.005 1.152.033.348.032.544.122 1.032.116-.096.086-.2.17-.3.254l-.883-.016c.001-.034.006-.069.005-.104-.197 0-.394-.008-.591-.01l.581.142-.578.144.713.196c.448-.102.996-.064 1.625-.102l.259-.049a35.005 35.005 0 0 1-.23-.056c.303-.072.64-.075 1.14-.06-.028-.158-.198-.238-1.033-.329-.18-.02-.816-.042-.55-.113l1.12.067c.158-.013.318-.028.475-.04-.094.058.004.248.58.154.06-.01.092-.14.44-.138.253.033.497.076.745.113l.367-.06c.296.083.323.129-.073.194l.688-.012 1.379.114-1.478-.016.585.216-1.48-.175.586.243.892-.016-1.196.195 1.783-.084 1.044-.355 1.017.061.299-.258c-.484-.004-.969-.008-1.458-.014.019.105.131.173-.594.151.478-.148-.123-.24-.574-.371l1.465.119.005-.156c-.6-.022-.896-.076-1.469-.016.007-.035-.007-.068.012-.105.235.032.596-.038.704-.034.515.015 1.032.161 1.437.156.96-.013.106-.258.214-.29.38-.111.64.053.699.092.16.106.027.172.73.164l-1.164.095c.675.006 1.354.01 2.057.015-.323.11-.784.161-1.48.147.042.132-.117.235-.594.333l.864-.02c-.023-.089.005-.15.453-.198l.306.046.15-.102 1.181.189c-.793.09-.336-.11-1.039-.078-.448.02-.501.128-.457.198.2.022.399.039.598.058-.986.05-1.695.044-2.639-.02-.009.085.491.047.732.113.217.06.14.164.555.207.886.048.122-.127.192-.14.528-.098 1.294-.133 1.904-.209.004.054-.003.105-.003.157l.598-.094c.321.084.592.001.862.008.59.016.432.176 1.047.199.044-.068.1-.139.148-.207.335.033-.11.108.435.077.28-.015.562-.033.869-.024.038-.152-.211-.298.447-.416l1.338.13h-.896l.234.052c-.499.09-.603.166-.545.287h1.189c.006.034.003.07.013.102.415.028.728-.035 1.053-.047.442-.016.583.06 1.014.041.026-.103.139-.164-.571-.155l-.305-.31c.781-.003 2.028.107 2.054.254l.437-.052c.193.05.379.1.576.15.397-.066.527-.1-.034-.152-.642-.059-1.143-.037-.972-.207 1.217-.01 1.238.24 2.441.236.923-.003 1.012.06 1.898.09a22.6 22.6 0 0 0 1.957-.025c.578-.043.841-.15 1.624-.117.208-.091.404-.179.607-.269l-.592.008-.004-.208-.743.107c-.528-.059-1.001.029-1.598.028.11.102.7.043 1.018-.008l.719.142c-.719.027-1.438.053-2.167.078-.247-.083-.492-.168-.739-.252l1.308-.013.446-.162c-.581.042-1.165.083-1.754.123l.004-.26c.713-.008 1.35.024 2.042-.023l.429.255c1.012-.074.658-.149.152-.262.367-.03 1.125.05 1.323.08.202.031.063.088.173.1.608.065 1.357.003 1.908.08a149.75 149.75 0 0 0-.439-.253l-1.48-.002c.056-.138.921-.106 1.337-.048.049-.035.096-.071.146-.106.237-.005.453-.026.581.017.055.018.236.083.229.094-.093.123-.229.134.35.212l-.286.13.872.037c-.096-.05-.193-.1-.288-.151l1.154.057-.575-.015.285.307c.285-.032.583-.064.884-.096-.198-.013-.407-.026-.594-.04.387-.077.794-.155 1.187-.233a90.597 90.597 0 0 0-.29-.124l-.601.065c-.001-.052.001-.104.001-.157a18.526 18.526 0 0 1 2.376-.05l.004.156.724-.069.446.068-.583.066 1.308.099.148-.108c.285.01.554.022.858.032.205.081.414.162.613.243.87-.079.135-.112.332-.218.028-.014.648-.033.556.016.018.024.001.048.007.072l.591-.016.01-.104 1.74-.053c-.232.058-.476.116-.703.175h.009-.001c.316.004.837.02 1.095.02.261.001.253-.011.471-.013-.114-.04-.196-.08-.295-.12.377-.088.989-.095.891-.213.319.001.644.05.896.075.05-.019.098-.04.149-.057.131-.008.121.043.144.044.751.047 1.414-.062 2.186-.073l.292-.116-.141.214.882-.033c-.083-.156.143-.284.597-.44l-1.198-.007c.094-.055.19-.11.292-.167l1.204-.098c.053.06.279.11.292.172.013.061-.252.142-.442.198-.331.099-.556.095.006.158.444-.087.889-.174 1.325-.261l.014.154.56-.019c.002.05.014.104.009.153.549-.024.371-.12.612-.172.244-.052.592-.021.975-.056.187-.017.287-.066.65-.072.559-.01 1.548.119 2.167.059.141-.13-.601-.211-.298-.326l-.574-.051c-.594.036-.131.135.03.172.162.037.586.064.558.114-.97.039-1.834.016-1.771-.182l-1.199.103c.091-.09.193-.182.293-.273.423-.018.731.033 1.052-.045.236.028-.445.17.321.086.101-.01.67-.134.689-.153.133-.135-.954-.05-.862-.2.463-.027.154.064.471.082.433.024.789.061 1.281.05l.01.206.573-.052a75.493 75.493 0 0 0-.287-.169l.547-.03c.014-.033.008-.066.034-.1.648-.03 1.714-.122 2.031-.02.323.103-1.025.117-1.319.187l-.718.042-.288.142.288.169c.193-.061.402-.124.602-.186h.597c.049-.064.097-.128.146-.19.195.041.404.085.589.127.431-.055.239-.113.487-.174.249-.06 1.046-.117 1.379-.126.021.033.021.065.034.099l.567-.023c.152.094.165.212.918.159l.144-.164.73-.09-1.177-.095c.506 0 .94.056 1.35.077.537.027 1.033-.02.983.113.484 0 1.25-.145 1.651-.186.404-.041.642-.032 1.005-.063a7.648 7.648 0 0 0-1.45-.027l-.032-.097c-1.179.024-.995-.162.161-.218.247-.012.221.093.432.105.296-.006.587-.015.875-.022.078.087.322.147.296.243.302-.024.594-.059.891-.102l.013.155c.608-.028.876.003.893.108l1.143-.117-.237-.117c.267-.162.523-.324.821-.489.555-.043.877-.13 1.331-.079l.281-.222c.449.052.482.056.134.176-.287.099-.657.243-1.138.324-.29.049-.401-.026-.613.036.106.036.206.075.309.112l.753-.145c.698-.052.885.05 1.583.014-.001-.024-.005-.048-.007-.072l.905-.082-.291.172.871-.047c-.002.07.01.14 0 .208.498-.01.105-.132.445-.123.681.012 1.537-.046 2.021.048.443-.115.851-.126 1.452-.169.445-.034 1.33-.09 1.711-.092.414-.005.75-.004 1.026.002.964.024 2.057.073 2.635.288.036.01.042.046-.072-.079a.727.727 0 0 1-.109-.7c.117-.199-.033.018-.172.101-.304.224-.692.452-.865.637-.23.24.533-.227.506-.116-.732.438-1.041.717-1.996 1.075.354-.16.703-.323 1.042-.493a6.951 6.951 0 0 1-.335-.08c-.371.155-.544.266-.913.432-.228.103-.512.18-.793.308-.328.148-.452.293-.933.44-.017-.03-.026-.065-.04-.096-.313.128-.624.254-.948.38-.143.018-.486.103-.287-.01.478-.268 1.273-.342 1.189-.52-1.042.367-2.101.712-3.177 1.062-.477.23-.425.302-.362.393-.104 0-.197-.01-.365.022a1.057 1.057 0 0 0-.118.047c-.552.198-1.288.565-1.778.727-.526.166-.537.06-1.038.234.123.036.218.088.334.129a94.87 94.87 0 0 1-.852.078c.07-.062.159-.129.228-.19-.199.045-.503.126-.67.168-.673.171-.88.25-1.502.45-.178.058-.712.187-.922.27.021-.136-.282-.145-.912-.06l.04.205-1.738.282c.189-.006.397-.017.59-.024-.128.1-.261.2-.39.3.036-.062.077-.125.114-.187a506.796 506.796 0 0 1-2.293.506c-.011-.05-.02-.103-.03-.154l-.86.188c.279.02.061.115.039.205.23-.066.478-.136.711-.204l.736-.032c-.179.084-.37.17-.549.253l1.141-.303-.56.177.023.154c-.796.174-1.46.199-2.153.47l.085-.338c-.708.137-.947.254-1.413.44-.336.133-.584.232-.848.18-.286-.056.353-.091.554-.17-.37.027-.223-.07-.473-.087-.277-.018-.584.054-.017-.154l1.614-.136c.008-.109.105-.19-.591-.034l-.041-.15c-.477.105-.949.207-1.426.31.007.034-.002.072.014.103-.616.155-.509.039-1.098.138-.308.052-.91.131-1.408.26-.493.128-1.096.395-1.811.478.187.017.401.021.597.033l-1.046.12-.973.261.269-.164-1.149.247.324.143-.446.045c.007.034.017.066.024.1l-1.285.277-.001.103-.698.202c-.704.024-1.586.235-2.471.375l.414-.25.717-.1a4.05 4.05 0 0 0-.028-.155c-.243.036-.482.072-.727.107l-.555.22c-.534.08-1.066.16-1.601.242l.162.071-.428.093-.168-.072c-1.324.273-2.534.644-3.739.763-.888.34-1.771.466-2.922.74-.195.047-.406.07-.61.117a1.988 1.988 0 0 0-.332.102c-.026-.03-.028-.065-.045-.096-.461.155-.806.234-1.449.566-.049.02-.098.043-.148.07a1.105 1.105 0 0 0-.384.35c-.051.085-.105.155-.154.375-.111.408.212.894.286.938.246.24.398.27.471.31a2.814 2.814 0 0 0 .819.188c.339.026.668.008 1.143-.014.551-.028.902-.063 1.504-.08.273-.01.004.165.699.095.017-.066.006-.138.013-.207.463.05.689.036.887-.057-.597.011-.96.029-.883-.099-.194 0-.384 0-.578-.002-.086-.098-.384-.136.144-.206.834.036 1.667.06 2.501.087.125-.128-.981-.232-1.17-.353.757-.015.942-.093.891-.217.334-.016.511.008.722.044.421.074.338.162 1.034.15-.06-.052-.096-.101-.156-.155.378-.063-.013-.127-.06-.178-.046-.052.313-.051.388-.08.101-.042.141-.07.223-.086a.89.89 0 0 1 .175-.013c.116.01.109-.031.471.059a.441.441 0 0 1 .236-.166c-.358-.184-.348-.103-.408-.122a2.005 2.005 0 0 0-.148 0c-.072.005-.179.01-.242.017.045-.05.116-.1.171-.15a23.86 23.86 0 0 0-2.248-.053c-.215.003-.455.04-.573.044-1.072.041-1.34.012-2.449-.026-.215-.007-.893.06-1.36.01-.152-.019-.26-.094-.612-.136-.096-.012-.24-.026-.352-.04a3.858 3.858 0 0 1-.142-.021c-.001.003-.022-.013.069.039.045.03.113.067.212.201.157.165.183.644.075.8-.147.273-.235.268-.233.276-.013.007-.001-.003.022-.015.031-.018.103-.05.173-.076.115-.046.294-.101.406-.13.259-.07.493-.11.792-.163.202-.034.41-.07.615-.113-.003-.034-.011-.069-.017-.103.477-.055.968-.114 1.457-.17.614-.151 1.237-.302 1.849-.451-.002-.035-.002-.069-.006-.104.52-.067.783-.174 1.289-.282.513-.109.889-.109 1.44-.257l.549-.279c-.032.078-.08.161-.1.234.406-.052.943-.242 1.25-.307.929-.198 1.645-.265 2.47-.522.328-.102.704-.317.952-.382 1.014-.267 1.127-.146 1.768-.235.373-.051.337-.107.566-.154 1.198-.246 2.308-.368 3.476-.604 1.167-.235 2.318-.64 3.396-.888.859-.197 1.139-.151 1.898-.414.003.037.017.068.031.1.39-.084.91-.193 1.276-.275.257-.058.399-.13.563-.166.505-.11.97-.102 1.426-.226l.027-.008c.539-.15.601-.265 1.277-.382-.008-.025-.006-.049-.01-.073l.447-.08.262-.163c.155.018.309.037.459.057l-.849.244c.376-.075.758-.151 1.144-.23.28-.073.572-.15.852-.225l.002-.104c.283-.065.568-.13.843-.195-.019.134.31.04.893-.105.191-.08.367-.159.555-.24-.084.074-.176.15-.256.222.296-.035.59-.071.887-.11.318-.15.643-.305.964-.462-.034.063-.072.127-.107.19.325-.066.452-.157.704-.231.252-.075.335-.054.615-.14a7.251 7.251 0 0 0 1.1-.422c-.075.035.004 0 .024-.006a6.3 6.3 0 0 1 .13-.046c-.007-.034-.017-.067-.026-.1.074-.026.179-.061.267-.09.01.033.029.063.036.096a25.786 25.786 0 0 0 2.086-.633c2.205-.833 4.293-1.24 6.497-2.944a2.3 2.3 0 0 0 .378-.343 1.79 1.79 0 0 0 .2-.28c.07-.12.144-.292.178-.484.1-.387-.123-.98-.331-1.182-.248-.275-.399-.35-.581-.452-.624-.31-1.122-.37-1.611-.44.233-.02.43-.044.706-.04a10.352 10.352 0 0 0-1.321-.13c-.16.038-.355.076-.501.119a9.104 9.104 0 0 0-.425-.336 3.66 3.66 0 0 0-.388.031c-.239.047-.084.112-.005.19.03.026.052.052.048.078l-.051-.001c-.316-.01-.7-.014-1.131-.01-.341.004-.701.011-1.051.02-.295.008-.47.06-.597.062-.637.007-1.189-.085-1.799.029-.273-.038-.57-.073-.861-.108-.297.055-.437.115-.775.171-.38.066-.65.05-.568.157l-1.159.118a3.999 3.999 0 0 0-.015-.154l-.59.03-.016-.155c-.299.034-.562.066-.852.1-.068-.118-.866-.203-.881-.003l.591-.007-.582.06-.002.156c-.595.07-1.248-.047-1.204-.14l-.707.141c-.827-.031-1.131-.074-1.036-.252l-.892.105-.031.1-.978.162-.439-.132.556-.035c.153-.058.305-.117.455-.176l1.918-.11c-.261.168-.264.223.444.288l.136-.32c.344.05.64.103 1.015.15a6.606 6.606 0 0 1-.159-.094c.832-.053 1.354-.158 2.075-.118-.06-.155-.026-.258.718-.404.361.014.711.03 1.053.045l-.896.102c.004.122.004.243.01.364.743-.071 1.459-.107 2.161-.173.257-.024.31-.075.482-.099.494-.068.661-.053.606-.16.292.004.532.01.854.013-.03.116-.063.21.627.233l.008-.156.55-.027.02-.1c.185-.009.339-.015.564-.024l.035-.1c.316-.01.612-.018.892-.022l.02.1c.283.012.741.025 1.068.047a2.84 2.84 0 0 0 .375-.067c.286-.055.494-.12 1.014-.08a2.597 2.597 0 0 1-.137-.217c.402.044.715.087 1.152.162.136.179-1.098.15-1.04.315.778.005 1.369.075 2.44.444a3.968 3.968 0 0 0-.413-.182 6.792 6.792 0 0 0-.354-.127c.171.016.297.023.518.068.206.045.368.073.67.213.129.077.214.128.392.28.169.15.335.334.474.605.351.653.165 1.435-.046 1.776.266-.37.403-1.17.156-1.716-.204-.492-.398-.655-.468-.765-.071-.094-.029-.11.183.058.105.09.253.22.426.515.195.315.338.936.236 1.427-.137.24-.317.432-.468.526-.329.562-.608.74-.837.93a6.509 6.509 0 0 1-.657.435c-.144.004-.264-.01-.397-.016-.884.558-.361.327.067.23-.695.632.408-.059.843-.479.245-.179.295-.155.208-.057-.436.473-1.199.837-1.829 1.124.076-.093.149-.184.231-.281-.301.115-.608.224-.898.32l-.021-.049a30.5 30.5 0 0 0 .525-.374c-.577.264-1.142.495-1.709.714-.153.172.701-.04 1.213-.267.027.134-.409.36-1.092.612a3.994 3.994 0 0 1-.052-.148c-.756.333-1.496.548-2.27.82-.363-.003-.728-.01-1.098-.014-.311.158-.62.315-.941.473.27-.073.674-.298.833-.297.159.001.31.022.342.076a9.967 9.967 0 0 1-1.888.399c-.098.059-.22.121-.319.176-.041.025-.11.06-.147.084-.022.017-.112.07.013.025-.116.078-.216.145-.303.207-.185.133-.089.147-.682.319l.274-.257c-.386.118-.74.204-1.093.286l.132-.146c-.298.086-.589.165-.879.242.119.058.23.118.352.175a52.7 52.7 0 0 1-1.21.098l.19.167c-.097.01-.205.024-.298.033-.131.082-.272.167-.404.248.386-.094.77-.19 1.16-.29-.427.164-.852.322-1.274.478-.396.014-1.062.167-1.07.047l-.545.122-.042-.15c-.199.056-.375.106-.572.16.113.054.225.108.335.163-.463.02-.903.033-1.365.05-.43.098-.981.202-1.381.313-.25.07-.395.17-.572.216-.339.086-.422.112-.59.164a16.48 16.48 0 0 1-.357.108c-.422.123-1.834.434-2.052.59.188.029.4.052.605.078-.319.122-.482.221-.843.348-.362.126-.663.16-.547.25-.192.046-.383.085-.571.126 0 .026 0 .05.027.071.5-.004.814-.027 1.618-.218.548-.13.686-.207 1.158-.201ZM49.326 7.199l.005.105-.733-.075.306-.11-1.177-.078-.318.187 1.18.079-.01.156 1.316.087.162-.095.28.092.88.087-.843-.29.584-.092c-.596-.04-.864-.106-.865-.212l-.767.16Zm-1.929.16.146.035.45-.048-.146-.035-.45.048Zm-1.79-.123c.004-.033-.28-.053-.28-.02-.006.033.277.052.28.02Zm-10.265-.763c.004-.033-.272-.054-.275-.022-.004.033.273.055.275.022Zm-2.625-.186.587.047.004-.052-.587-.047-.004.052Zm-5.306-.477c.003-.032-.272-.056-.275-.024-.004.033.272.057.274.024Zm26.43 1.91c.002-.033-.282-.05-.282-.017-.005.033.28.05.281.017Zm-12.61-.849c.004-.033-.275-.053-.278-.02-.003.032.276.053.278.02Zm26.167 1.554.583.027c-.05-.069.174-.09.302-.143l-.874-.04c-.004.052-.008.104-.01.156Zm-7.926-.613-.025.1-.567-.029-.008.104.586.033.308-.192-.292-.016h-.002ZM18.334 4.925c-.422-.125-.92-.218-.874-.058l.441-.006.433.064Zm27.6 2.098c-.062.048.182.183.58.196l.014-.155-.594-.041Zm25.588 1.536.591.025c.002-.017.002-.035.003-.052l-.592-.025-.002.052ZM29.49 5.815c-.255-.075-1.003-.022-.887.012.256.075 1.002.022.887-.012Zm36.75 2.399-.008.104.587.028-.433-.125-.146-.007Zm-.89.061.294.014c.003-.052.009-.104.011-.156l-.294-.014-.012.156Zm-46.434-3.32.585.056.018-.155-.584-.056c-.006.052-.014.103-.019.155Zm-2.874-.447c-.17-.046.118-.133-.587-.15.003.128.962.378 1.72.429l.024-.206c-.386-.037-.762.034-1.157-.073ZM54.75 7.697c.325.03.587.024.888.027.302.003.615.024.603-.043a656.04 656.04 0 0 1-1.181-.07l-.293-.122c-.005.07-.013.139-.017.208Zm20.318.747c.208.079.34.14.28.22l.872.032.013-.208-1.165-.044Zm-4.729.013.602-.079-.594-.025-.008.104Zm-5.285-.275c.002-.033-.276-.046-.278-.013-.003.033.276.046.278.013ZM28.31 5.705c.04-.172-1.063-.188-1.732-.255l.726.22 1.006.035Zm9.124.54c.206.086.345.154.276.23l.296.023c.008-.07.014-.138.02-.208l-.592-.045ZM73 8.49c.003-.033-.276-.044-.278-.011-.002.032.276.044.278.011Zm-3.853-.167c.003-.033-.272-.045-.274-.013-.002.033.272.045.274.013Zm19.166.65c.491-.022.98-.046 1.467-.07l-1.46-.086c-.002.052-.006.104-.007.156ZM10.965 3.38c.274.035.024.082.303.135.17.032.38.085.6.11.6.066.804-.009 1.284.162l-.587-.032-.037.307c.192.03.387.058.58.087-.366.039-.232.126-.9.04.014-.04.338-.03.17-.087-.41-.138-.566-.11-.816-.272-.231-.15-1.503-.405-.597-.45Zm72.618 5.46c.325-.012.494-.046.879-.027l.013-.207-.588-.017-.304.252Zm-1.457-.044.292.01c.024-.073.257-.127.302-.199h-.008c-.192-.004-.383-.014-.574-.019l-.012.208ZM31.27 5.88c.004-.033-.275-.056-.278-.023-.004.032.275.056.278.023Zm-2.591-.35c-.31.02.34.204.48.196.309-.02-.34-.204-.48-.196Zm-15.29-1.275c-.011-.107.316-.128.9-.067l-.9.067Zm60.798 4.207.585.023a.7.7 0 0 0 .004-.052l-.586-.022a.691.691 0 0 0-.003.051Zm-3.846-.187c.003-.033-.28-.045-.281-.013-.002.033.28.045.281.013Zm-2.632-.096 1.164.053.002-.052a977.94 977.94 0 0 1-1.163-.053l-.003.052Zm27.674.836c.502-.048.758-.025 1.279.017l1.348-.108c-.757-.14-1.472-.01-2.325-.113l-.302.204Zm-1.768-.031.591.01c.002-.017.002-.035.002-.052l-.591-.01c-.002.017-.002.034-.002.052Zm-32.669-1.3c.577.028.895.099.864.202-.59-.029-.894-.1-.864-.203Zm-4.67-.471c-.37-.02-.463.054-.6.095-.235.07-.401.117-.319.216h.002c.76.062.496-.01.604-.094.108-.085.396-.12.313-.217Zm44.71 1.674 1.17.168-.58-.214-.59.046Zm-28.27-.565c.002-.033-.278-.044-.28-.011-.002.032.277.044.28.011Zm-42.021-2.57.59.05a2.77 2.77 0 0 0 .011-.104l-.59-.05-.011.104Zm61.442 3.072.592.09.006-.156-.148-.003-.45.069ZM63.3 7.91l.297.015.008-.104-.297-.015-.008.104ZM6.08 3.36c.003-.032-.272-.062-.277-.03-.004.033.273.063.277.03Zm96.372 5.647.879-.15-.875-.007c-.001.052-.001.104-.004.157Zm-61.756-2.54c.002-.033.28-.012.278.02-.003.033-.281.013-.278-.02ZM71.24 8.208c.002-.032-.278-.044-.28-.011-.003.032.278.044.28.011Zm-2.08-.093c.003-.033-.27-.045-.273-.012-.003.032.272.045.274.012Zm-3.495-.138.294.015.008-.104-.294-.014-.008.103Zm24.112.796c.001-.032-.275-.039-.276-.006-.001.033.274.039.276.006Zm-1.168-.027c.002-.033-.276-.04-.277-.007-.002.033.276.04.277.007ZM54.74 7.228c-.136-.029-.812.059-.512.123.136.029.813-.06.511-.123Zm25.645 1.198c-.001.035-.004.07-.006.104l-.59-.02.007-.103.589.02Zm-2.962-.024c0-.033.284-.023.282.01-.002.033-.285.022-.282-.01Zm-51.979-3.34c-.243-.046-.63-.042-.879-.054-.002.035-.009.07-.012.104l.585.053.306-.104Zm105.898 3.56.146.022.433-.09-.146-.022-.433.09Zm-58.303-.626-.302.118.437.096.449-.112-.582-.101h-.001Zm17.333.712.583-.065-.431-.088a30.369 30.369 0 0 0-.145-.003c-.003.052-.006.104-.007.156Zm36.242-.028c0-.033-.275-.028-.275.005.001.033.276.027.275-.005ZM97.449 8.5c.288.044.22.067-.006.103-.43.068-.94.047-.881.17l1.451-.031.014-.26-.578.019ZM10.222 3.302l-.622.195c-.58-.033-1.16-.068-1.74-.103.799-.098.893-.265 2.362-.092ZM65.09 7.793l.59.029.003-.052-.59-.03-.002.053Zm25.586.609.879.019c.008.039-.265.035-.236.075.03.04.337.08.232.132l1.33.082.756-.17c.064-.1-.172-.068-.589-.089l-.15.05-1.036.03c-.103-.037-.199-.073-.307-.11h.003c-.036-.044-.28-.067-.295-.11l-.293-.007-.294.098ZM48.047 6.749l-.004.052-.59-.04.003-.052.59.04ZM83.03 8.302l-.006.104c-.29.001-.952-.064-.869-.13l.874.026ZM79.132 7.03c.207.04.215.135.468.164.253.03.672-.085.549.05-.123.134-.42.059-.854.114-.2.025.1.145-.333.16.3.04.582.073.875.11.086.098.17.197.257.295-.63.092-1.073.206-2.06.162.053.03.355.09.29.115l-1.188-.095-.007.104-1.458-.055c.001-.017.001-.035.003-.052l1.462.003.006-.104c.388.004.555.052.892.084-.067-.093.047-.147.459-.192l.739.052-1.48-.13c.206-.063.402-.126.61-.187-.51-.013-.294.109-.792.125-.267.008-.835-.027-1.14-.04-.31-.012-.472-.003-.436-.068.93.042.45-.163.885-.254l-.866-.059.306-.143 1.024-.011c.387.074.752.133.73.23l.597-.005c-.065-.1-.623-.152-.58-.254.68.04.63-.065 1.042-.12ZM30.6 5.274c.298.072.486.122.427.192l-.886-.074c-.045-.08.15-.097.46-.118Zm51.27 2.888c-.001.052-.005.104-.008.156l-.586-.019c.002-.052.007-.103.01-.155l.584.018Zm-34.69-1.68-.755.103-.739-.101.758-.103.736.1Zm-8.084-.424.153-.04-.296-.023.143.063Zm-9.235-.847a2.572 2.572 0 0 1-.012.103c-.569-.04-.965-.086-1.173-.205l1.185.102ZM96.29 8.3c.007.083-.097.181-.307.254l-.874.012c.396-.088.789-.178 1.181-.267Zm33.696.01-.445.088.001.026.887-.021-.442-.094h-.001Zm-54.013-.355c0 .035-.003.07-.006.104l-.582-.022c.147-.03.295-.058.444-.087l.144.005Zm-38.8-2.097-.874-.069c0-.008 0-.017.002-.026l.442-.043c.14.046.284.092.43.138ZM138.35 8.135l.601-.02a.454.454 0 0 0-.001-.052l-.601.02a.454.454 0 0 0 .001.052Zm-50.006.212-.002.052c.391.01.781.02 1.17.028 0-.035.002-.07.004-.104l-1.172.024Zm47.673-.166.439.013.016-.004h-.008l-.445-.01h-.002Zm-24.132.419c0-.033.282-.033.281 0 0 .032-.282.033-.281 0ZM14.637 3.777l-.595.02.02-.156.146.015.43.121Zm37.828 3.075c.003-.033.278-.016.275.017-.002.033-.278.015-.275-.017ZM82.46 8.207c.002-.033.277-.024.275.008-.001.033-.277.025-.275-.008Zm-2.349-.154c0 .034-.003.069-.006.103l-.295-.01.006-.104.295.01ZM53.08 6.289c.202.092.377.178.563.268-.172.033-.448.09-.579.121-.215.051-.052.072-.166.123-.136-.079-.279-.157-.419-.235l-1.16-.074c-.15.13.635.101.54.219-.032.04-.6-.01-.705.032-.151-.113-.274-.228-.42-.34-.504-.059-.68.032-1.034.03-.552-.003-.853-.068-1.318-.131.005.12-.409.173-.025.31l-.887-.059c.388-.145.645-.294.64-.479.754.054.933.147.864.266.787 0 1.806-.128 2.654-.037.04.054.093.111.127.164.543-.015.26-.114.506-.172.116-.027.661.03.819-.006Zm71.455 2.15c0-.033-.279-.029-.28.004-.001.033.281.028.28-.005Zm20.015-.579.588-.023-.442-.086h-.001l-.147.005c.001.035 0 .07.002.104Zm-76.794-.357c.016.105-.305.145-.887.115-.017-.106.305-.145.887-.115Zm-7.644-.256c.001-.033.277-.018.275.015-.002.032-.278.017-.275-.015Zm25.87.94c-.256-.06-.998.036-.883.063.258.061.999-.035.884-.062Zm62.674-.575c0-.033-.282-.021-.28.012.001.033.282.02.28-.012Zm-24.408.753c.376-.015.559.021.886.037 0-.034.002-.069.001-.104-.294.006-.59.01-.887.015v.052Zm41.748-1.68.289-.016c-.002-.034-.001-.07-.003-.104l-.289.016.003.105ZM14.98 3.42c.734.06.585.11.566.213-.098-.008-.195-.02-.293-.029l-.317.178c.014-.12.028-.241.044-.362Zm.842.424c.004-.033.28-.006.275.027-.003.032-.28.005-.275-.027ZM139.547 7.94c.13.037.16.057.296-.01l-.296.01ZM54.825 6.892c.002-.033.283-.016.28.017-.002.032-.283.016-.28-.017Zm29.965 1.28c.002-.033-.282-.04-.282-.008-.002.033.281.041.282.008ZM3.821 2.588c.004-.032.283-.002.278.03-.004.033-.283.003-.278-.03Zm71.58 5.19c0 .034-.003.07-.006.104l-.577-.127.584.023ZM38.683 5.792c.003-.033.284-.011.28.021-.003.033-.283.011-.28-.021Zm-.88-.225a789.956 789.956 0 0 0 .304-.001c-.01.05-.017.102-.026.153l-.741-.008c-.448-.077-.867-.152-1.3-.229l.583-.003c0 .013-.003.027-.005.04l.581.08.616-.161c-.005.043-.01.086-.013.13Zm-4.1-.167c.003-.033.28-.01.276.022-.004.033-.28.01-.276-.022Zm60.53 2.97c.196 0 .393.007.589.01l-.585-.115c0 .035-.004.07-.004.104Zm23.838.043c0-.032.282-.035.281-.002 0 .033-.282.035-.281.002ZM54.53 6.743c-.002.035-.006.07-.01.105l-.595-.037c.002-.034.006-.069.01-.103l.595.036Zm102.645.35c0-.033-.276-.018-.275.015.001.033.277.018.275-.015Zm-2.941.178.871-.043c.001-.018-.001-.035-.002-.053l-.871.044c-.001.018.001.035.002.052Zm-73.211.29c.932.018 1.185.177 2.033.222.009-.034.01-.068.025-.102.562 0 1.076-.066 1.416.068.287.117-.57.043-.83.056l-.04.004c-.064.013.063.045-.02.063-.338.072-.657.11-.567.223-.891-.024-1.46-.18-2.334-.127l-.276-.322c.294.027.585.055.878.081l-.285-.165Zm27.046.802c-.067-.163 1.133-.134 1.458-.023-.276.016-.181.123-.433.124-.869.004-.014-.212-1.025-.101Zm22.648-.2c0-.033-.277-.027-.277.006s.278.027.277-.006Zm20.267-.735c-.002-.035 0-.07-.002-.104l-.57.026.572.078Zm-30.568.91c.001-.033-.277-.03-.277.003s.276.03.277-.003Zm38.67-1.371.743-.093h.002l-.004-.104-1.2.065.459.132Zm-46.603 1.396.586.052c-.396.001-.712-.057-1.034 0-.497-.053-.301-.07-.2-.132.156-.097-.289-.14-.239-.23.29.104.593.207.887.31ZM16.707 3.8l-1.174-.063c.002-.035.015-.069.013-.104.141.012.279.03.42.043l.322-.074.419.198Zm139.292 3.304c0-.033-.283-.018-.283.015.001.032.285.018.283-.015Zm-4.117.074c-.057.055.204.161.6.128l-.002-.157-.598.029Zm14.101-.673c-.001-.033-.278-.018-.277.015.001.033.279.017.277-.015Zm-25.261.873c-.195.06-.39.118-.586.177l1.17-.041c.002.052.002.104.002.156-.678.06-1.361.117-2.061.176.057-.064-.203-.085-.141-.153h-.002c.096-.103.504-.218.438-.326l1.18.011Zm-23.851.89c-.306.028-.583.056-.875.083a.91.91 0 0 1 .002-.052h-.002l.725-.056.15.024Zm17.375-1.053c.992.007.975.2 2.064.15l-.586.226c.631-.057 1.22-.046 1.859-.05.136-.001.181.036.365.029.568-.022 1.056-.152.998.026l-1.192.038.001.26a3.126 3.126 0 0 0-.85.026l-.035-.1c-.183.005-.364.009-.548.012l-.024-.153-.552.011c-.008-.033-.013-.066-.022-.1-.194.006-.391.01-.588.015l.271-.083a87.594 87.594 0 0 0-.421-.066l-.742.072c.625-.156.619-.193 0-.313h.002ZM20.951 4.05c.122-.001.41.032.428.039.217.078-.207.104-.434.116l-.727-.173h.001c.348.048.5.021.732.018Zm-6.57-.586-.013.103-.587-.059a2.57 2.57 0 0 1 .013-.103l.587.059Zm67.5 4.49.876.027.002-.052-.875-.027a.65.65 0 0 0-.003.052Zm47.069-.09c-.06.146.353.235 1.186.234l-.001-.208-1.185-.027ZM7.045 2.781c.004-.033-.27-.062-.276-.03-.005.032.272.062.276.03Zm135.708 4.835.002.052c-.305-.015-.579-.03-.87-.046l.144-.032c.242.009.467.018.724.026Zm22.943-1.176a3.53 3.53 0 0 1 .725.006c.42-.074.854-.149 1.317-.224l-2.044.114c.001.035 0 .07.002.104Zm-8.815.512c0-.033-.278-.018-.277.014.001.033.279.019.277-.014ZM11.465 2.958c.038.144-.004.25-.92.167-.19-.09-.378-.179-.56-.268l1.48.101Zm-1.496.08c.004-.032.278-.003.274.03-.005.032-.278.003-.274-.03Zm97.809 5.22c0 .017.001.034-.001.051l-.589-.002.001-.052.589.002Zm45.293-1.086.583-.029c0-.034-.001-.07-.003-.104l-.144.007-.436.126Zm-77.37.461c0 .017 0 .035-.003.052l-1.165-.045c0-.018 0-.035.002-.052l1.166.045Zm-1.745-.12c-.002.034-.006.069-.007.103l-.294-.011.007-.105.293.012Zm-12.367-.63c-.123.177-.912.115-1.755.061.002-.052.008-.103.012-.155l.885.02.858.074Zm52.075 1.322c0 .017 0 .034-.002.052-.196 0-.393 0-.59.002 0-.018 0-.035.002-.052l.59-.002ZM19.933 3.9l-.605.047.013-.103.592.056Zm66.66 4.088.59.016.006-.105-.591-.015-.005.104Zm48.889 12.046.006-.104a66.458 66.458 0 0 1-.599-.007c.201.038.393.074.593.11Zm37.794-14.805c-.516.14-.039.142.266.23.151.044-.148.094.084.12.237.026.677-.002.799.067-.168.062-.364.127-.556.192a27.627 27.627 0 0 0-.439-.036c-.579.087-.204.113-.155.209-.492-.037-.923-.073-1.443-.103-.003-.051-.002-.103-.005-.154l.594-.078a66.653 66.653 0 0 0-.907-.04c.525-.067 1.013-.13 1.463-.19-.45-.01-.938-.016-1.464-.018l.906-.065-.296-.092c.41-.017.733-.03 1.153-.042ZM99.832 8.143c.045.044-.1.05-.316.051l.316-.05ZM41.368 5.548l-.424.02c-.061.048-.123.096-.183.145l-.29-.177-.579-.045c.003-.035.007-.07.012-.104.49.055.977.108 1.464.161Zm-5.888-.267c.003-.033.279-.011.275.022-.003.033-.279.01-.275-.022ZM65.738 6.99c-.004.07-.01.139-.015.208l-.587-.03.31-.192.292.014Zm-37.25-2.944c-.027.113-.456.12-.266.27.124.098 1.221.377 1.08.48-.722-.173-1.156-.172-2.038-.227-.024-.081.32-.015.595-.028.407-.02.293-.127.307-.208l-.596.105-.253-.307c.39-.028.784-.054 1.171-.085Zm147.647 2.527a30.1 30.1 0 0 1-.791.326l.018.05c.27-.108.531-.215.793-.328l-.02-.048ZM135.136 7.66l.001.156a3.427 3.427 0 0 1-.891-.053c.272-.061.466-.1.89-.103Zm.304.121c.001-.032.278-.04.278-.008.001.033-.278.041-.278.008Zm42.636-2.206c.053-.04.063-.048.023-.052-.013-.01-.003-.034-.012-.023-.006.006-.026.067-.011.075ZM13.516 3.246l-.45.033-.145-.04.451-.034.143.041ZM177.268 5.8c-.36.063.077.207-.58.201l.005-.185c.204-.008.355-.018.575-.016Zm-1.949-.233c.085.01.167.021.244.032.205.025.399.05.581.078-.097.073-.198.146-.298.22l-.292.002c-.238.006-.515.016-.828.03.312-.061.59-.12.832-.172.009-.015.009-.028.001-.038-.041-.073-.416-.034-.823-.05.022-.071-.122-.127-.291-.178-.154-.051-.366-.097-.565-.148h.002c.248-.02.446-.036.701-.051.273-.015.521-.028.746-.036l-.01.311Zm-97.857 2.08c.355.014.497-.07.571-.114.074-.043.03-.08.039-.125l-.894-.032c.095.09.187.18.284.27Zm19.431.092c.083.05-.139.222-.313.242-.458.05-.648-.028-.577.108-.745.03-1.452-.232-1.45-.339l.438.112c.637-.04 1.272-.085 1.902-.123Zm48.539-.357c-.001-.032.275-.044.275-.01 0 .032-.274.043-.275.01Zm-47.97.624-.003.105-.29-.005c0-.034.004-.07.004-.104l.29.004Zm-26.145-.812-.314.141-1.187.002c-.033-.191.52-.199 1.501-.143Zm-2.05-.455c-.025.046.141.114.14.16 0 .055.134.197.099.225h-.001c-.127.096-.394.087-.28.187l-.865-.093.298-.165-.855-.2.581.031c.296-.048.587-.098.883-.145Zm101.182 2.03c-.011-.032-.019-.066-.03-.1l.28-.09c.01.033.021.066.03.1l-.28.09Zm3.836-1.411-.545.197.017.05.544-.198a.439.439 0 0 0-.016-.05ZM62.476 6.98l-.596-.03.455-.081.148.007a2.79 2.79 0 0 1-.008.104Zm-38.7-2.829-.013.104-.293-.027.012-.103.294.026Zm-4.424-.412c-.037-.11.155-.114.772-.03.55.075 1.004.192.989.3-.717-.056-.966-.079-.868-.21l-.893-.06Zm155.49 3.438c.011.03.266-.067.255-.098-.01-.03-.266.067-.255.098Zm-13.861-.628c.046.011.015.046.142.037.126-.01.126-.034.142-.053-.094.006-.189.009-.284.016Zm-50.869 1.347c.18.161-.971.124-1.386.157-.414.033-.339.067-.659.1.218-.086.402-.172.606-.258l1.439.001Zm27.46 8.931c-.579.046-1.21.217-1.876.36.489-.212.813-.443 1.361-.645.26-.095.281-.056.456-.077l.115-.129.591-.047c-.077.122-.159.246-.238.37l-.409.168Zm-10.097-8.91c-.001-.032.272-.038.272-.005s-.273.038-.272.006Zm-27.038-.133c.059.185-.73.215-1.496.295-.039-.181.638-.237 1.496-.295Zm44.388 7.021c.006.033.278-.026.272-.058-.006-.032-.278.026-.272.058ZM67.205 7.14c.003-.033.279-.02.276.012-.001.033-.278.02-.276-.012Zm49.683.268c.032.105.121.166-.588.16.237.066.48.131.731.196l.44-.048c.111.157.883.185 1.49.274-.668.131-1.25.072-2.085.043l.303-.158a5.699 5.699 0 0 1-1.314-.09l-.728.05.293-.105-1.165-.073h-.002c.501-.103 1.061-.083 1.74-.089-.057-.116.382-.112.885-.16Zm59.56-.829c.013.03.257-.08.242-.11-.011-.03-.254.08-.242.11ZM133.346 17.56c-.009-.034-.015-.068-.022-.102.237-.047.424-.078.672-.12l.223-.036c-.027-.031.015-.082.112-.132.25-.129.29-.083.58-.146.295-.065.383-.14.718-.194l.027.153c-.701.077-1.054.193-1.131.357l-.508.09c-.248.046-.434.08-.671.13Zm-.348-.096c.027.026-.301.123-.302.091-.019-.03.313-.13.302-.09ZM49.296 6.127c.002-.033.281-.015.278.018-.002.033-.28.014-.278-.018Zm96.991.935c-.124.04-.216.151-.431.17-.414.038-.666.038-1.018.096.054-.055.103-.108.154-.163l1.295-.103ZM35.491 5.099l-.004.052-.583-.046.004-.052.583.046Zm117.748 8.405c.007-.073.027-.147-.321-.117-.275.024-.168.052-.443.107-.191.039-.442.04-.705.114.12-.115.253-.232.379-.348l-.105.235c.67-.153 1.339-.306 2.006-.46l-.838.315h-.003c.385-.082.765-.164 1.15-.248-.375.135-.746.269-1.12.402Zm-68.11-5.791c.001-.033.283-.025.282.008-.001.032-.284.025-.282-.008Zm49.528 10.29c-.376.077-.46.052-.508.015-.04-.028-.051-.065-.155-.067-.12-.003-.284.034-.436.067-.179.04-.323.072-.396.049.142-.1.376-.226.528-.323-.11.035-.233.074-.359.116a13.03 13.03 0 0 0-.358.128 5.733 5.733 0 0 0-.367.151c-.067.032-.103.05-.191.1-.077.05-.126.058-.249.209.076-.136.129-.185.175-.244.05-.058.112-.114.145-.157a1.559 1.559 0 0 0-.276.146c-.056.042-.166.116-.238.282a.544.544 0 0 0 .023.457c.081.134.115.146.168.19.346.203.442.165.631.208l-.069.358a3.281 3.281 0 0 1-.289-.057 1.825 1.825 0 0 1-.201-.062c-.057-.024-.177-.061-.339-.193a.948.948 0 0 1-.289-.427c-.101-.253.017-.636.069-.7.127-.23.302-.337.346-.37.125-.083.267-.145.335-.173l.05.147c-.047.02-.121.053-.197.095-.077.05-.134.056-.307.243a.774.774 0 0 0-.177.573.764.764 0 0 0 .295.512c.191.136.258.14.341.171l.002.001a.66.66 0 0 1 .026-.073c-.062-.025-.091-.035-.192-.09a.73.73 0 0 1-.254-.223.647.647 0 0 1-.108-.24.664.664 0 0 1 .226-.64c.116-.092.13-.088.192-.122.114-.055.192-.079.272-.104a3.33 3.33 0 0 1 .24-.064l.054.088c.25-.098.46-.171.715-.253.494-.043.604.002.222.188.121-.005.246-.013.365-.019.324-.009.568-.004.535.108Zm43.356-11.987c.012-.033.223.034.198.063 0 .032-.204-.033-.198-.063Zm-46.41 1.71-.146.029-.437-.068.146-.03.437.068ZM49.609 5.887c.895-.036 1.823-.012 2.624.166l-.602.197-.282-.122-1.472.01c.01-.07.003-.138.025-.208-.195.007-.07-.004-.342.008-.271.011-.226-.04.05-.051ZM19.62 2.67c.484.01.49.091.589.156.123.08.132.144.424.224l-.904.045c.838.09 1.367.068 1.503-.067l.285.13c.393.02.784.04 1.176.058 0 .034-.003.069-.002.104l1.454.078.034-.098.866.077.28.284.543.055c-.015.02-.026.04-.012.061-.187-.03-.364-.06-.556-.089-.155-.061-.538-.019-.57-.002-.11.06.011.121-.035.182l.579.079-.884.025c.187.075.667.133.54.208-.073.044-.477.05-.717-.043-.304-.12-.48-.242-.396-.348-.658-.084-1.138-.079-1.766-.11v.001h-.003c-.044.027-.162.038-.275.052l.546.181c-1.123-.11-1.636-.274-1.733-.475-.276-.011-.43.017-.737-.018-.337-.129-.664-.256-.991-.385l.605-.2c-.19-.036-.384-.071-.57-.108.234-.007.49-.062.727-.057Zm87.28 5.323c0 .018 0 .035-.002.052l-1.184-.058c.052-.034.101-.069.152-.103l1.034.11Zm63.767-2.186-.585.134-.003-.104.588-.03ZM34.33 4.954l-.004.052-.584-.048.004-.052.584.048Zm129.294 1.24.004.103-.288.017-.004-.105.288-.016Zm-22.023 1.178c-.001-.033.273-.042.273-.01 0 .033-.272.043-.273.01Zm-.58.021c0-.033.275-.043.275-.01.001.033-.275.043-.275.01Zm-78.52-.723c-.003.052-.01.104-.013.156l-.298-.016.013-.156.297.016ZM23.493 4.022l-.005.052-.587-.054.005-.052.587.054Zm-7.894-.91c-.065-.062.184-.156.603-.035.087.026.064.145.419.188.2-.028.399-.065.601-.096.269.077.582.178.68.253.056.043-.085.04-.124.066-.05-.042-.093-.081-.14-.122l-.6.099a5.748 5.748 0 0 1-1.322-.233l-1.006-.05c-.091-.06-.182-.122-.273-.184l1.162.114Zm72.49 4.628c0-.033.28-.026.277.007 0 .033-.278.026-.277-.007Zm90.301-2.038c-.071-.014-.064-.077-.159-.054.055-.045.005-.078-.013.146.011.275.175.347.128.318.007-.026.048-.05.066-.079.007-.019-.002-.038-.025-.116a.406.406 0 0 1 .003-.215ZM13.837 3.122c.005-.033.282-.005.278.027-.004.033-.282.005-.278-.028Zm-4.1-.605c-.41.196-1.417.162-1.45-.153l1.45.153Zm117.446 5.068c1.638-.044.956.186-.292.214l.292-.214Zm41.575-1.74.42-.04c-.347.083-.577.167-1.146.193.32-.091.017-.088-.003-.157l.729.004Zm-1.331.134a.906.906 0 0 1 .002.052l-.875.049-.001-.052.874-.05Zm1.19 3.78c-.016-.05-.03-.1-.044-.15a22.26 22.26 0 0 1-.538.184c.268-.102.542-.209.792-.318.02.067.041.133.06.2-.088.029-.177.056-.27.085ZM34.925 4.976c.004-.032.28-.01.276.022-.003.033-.28.011-.276-.022Zm136.74 3.78c.092.196-.561.219-.94.33-.513.15-.315.154-.741.187-.037-.001-.179.013-.253.003-.099 0-.195.002-.121-.053.531-.217.959-.36 1.427-.534-.074.107-.133.208-.21.315.273-.08.569-.164.838-.247ZM91.89 7.699l-.005.104-.299-.007c0-.034.003-.069.005-.104l.299.007Zm22.075.141-.002.104-.589.002.444-.105h.147Zm-1.178.004-.003.104-.591-.103.594-.001Zm21.108 11.32c.263-.012.334-.07.585.024.25.093.048.181.178.286.095.077.619.155.534.245a44.25 44.25 0 0 1-.892-.044l.025-.39a13.795 13.795 0 0 1-1.504-.107h.002c.258-.068.556.008 1.072-.014Zm44.052-13.19c.022.026-.182.154-.202.126-.012-.03.187-.155.202-.127ZM86.891 7.5h-.001l-1.021.153c-.197-.055-.43-.054-.735-.072l-.29-.268c.785.109 1.002-.003 1.785-.003l.262.19ZM11.783 2.86c.005-.032.284-.004.28.029-.004.032-.284.004-.28-.029Zm41.61 3.37c.002-.032.276-.015.274.017-.002.033-.277.016-.274-.016Zm85.279 10.095.298-.018.424-.114c-.344.141-.573.264-1.123.378l.401-.246ZM74.849 7.287c-.423-.056-.644-.098-1.023-.04l-.145-.033c.37-.05.618-.111 1.178-.083-.004.052-.008.104-.01.156ZM37.555 5.052l-.011.103-.297-.023a2.79 2.79 0 0 1 .01-.103l.298.023Zm104.907 2.185c-.004-.033.276-.043.279-.01-.002.032-.282.043-.279.01ZM67.22 6.93c.002-.033.279-.02.276.013-.002.033-.279.02-.276-.013Zm74.381.337c0-.033.272-.043.273-.01.001.033-.273.043-.273.01Zm-118.09-3.4-.598.05.013-.104.586.054ZM157.753 6.49c-.001-.033.269-.047.269-.014.001.033-.268.047-.269.014Zm-25.544.856c.382.068.735.138 1.141.205-.731.04-.483-.052-.871-.11-.158-.023-.388-.012-.575-.011-.196-.063.23-.129.201-.184-.06-.112-.597-.17.372-.194-.096.098-.177.196-.268.294ZM1.207 1.677c.003-.032-.276-.064-.28-.031-.003.033.276.064.28.031Zm81.597 5.42-.592.061-.007.234 1.056-.066 1.278.007c-.369.042-.146.138-.748.106-.467-.024-.79-.062-1.28-.036-.009.033-.013.068-.02.102-.718-.009-.61-.071-.575-.175l-.3.147-1.174-.039c.157-.106.298-.167.015-.284l.447-.065.287.113.455-.14 1.158.035Zm71.993-.454c-.001-.033.288-.047.287-.014.002.032-.288.047-.287.014ZM3.914 1.838c.403.102.486.058.88.097-.005.052-.014.103-.021.155L3.9 1.94l.014-.103Zm97.995 5.911c-.001.035-.004.07-.004.104-.293.008-.959-.044-.877-.113l.881.009ZM41.687 5.311c-.002.035-.006.07-.01.104l-.293-.022.01-.104.293.022Zm81.674 2.364-.449.085-.15-.024h.002l.45-.084.147.023Zm-26.747-.15c.652.007.75.063.864.17.253-.002.655-.046.881-.014l-.885.117c-.01-.035.027-.069.004-.104-.587-.015-.883-.06-.864-.17Zm24.11.263.294-.237.869-.038-1.163.275Zm-.876-.095-.589.11.002-.104c.196-.001.392-.004.587-.006Zm-24.692-.166c-.469.039-.105.115-.351.172-.103.024-.608-.017-.684.044-.068-.012-.1-.02-.153-.03l1.038-.215.15.029Zm46.434-.337h.002l-.726.078a39.719 39.719 0 0 0-.146-.021l.87-.109a.45.45 0 0 1 0 .052Zm-1.162.04c-.782.045-1.577.09-2.382.132l.293-.192c.53-.045.718-.027.938-.13.104-.048.176-.143.56-.153.198.114.395.23.591.344Zm-50.578.396c.002-.032.275-.026.273.007 0 .033-.275.026-.273-.007Zm46.176-.515c.754.04 1.428.077 1.45.244-.537.083-.042-.025-.374-.066-.331-.04-1.26-.03-1.076-.178Zm.363 12.455c.393.016.785.03 1.179.044 0-.035.003-.07.003-.104a178.59 178.59 0 0 1-1.179-.045l-.003.105ZM18.233 3.397c.003-.032.277-.006.273.027-.004.032-.278.006-.273-.027ZM176.17 5.574c.004-.033.256-.017.256.016-.007.032-.257.017-.256-.016Zm-12.643 5.456c-.004-.017-.009-.034-.011-.05l.57-.132a.879.879 0 0 1 .011.051c-.186.043-.387.09-.57.131Zm-22.086 4.906-.018-.102.573-.124-.413.195-.142.031ZM72.51 7.088l.294.012c.003-.035.006-.07.007-.104l-.295-.012-.006.104ZM146 6.916h-.002c.002.035.001.07.002.104l-.58-.08.58-.024ZM39.045 5.14c.003-.033.283-.011.28.021-.004.033-.284.012-.28-.021Zm31.996 1.755h-.001l-.305.117-.587-.13.747-.02c.048.012.097.022.147.033ZM172.257 8.67a20.25 20.25 0 0 1-.318-.032c.273-.117.537-.233.812-.354h.001l-.219.294-.276.092ZM92.794 7.638c0-.033.282-.027.28.006 0 .033-.282.027-.28-.006Zm82.826-.4c.183-.022-.327.277.058.142a6.99 6.99 0 0 0 1.173-.555c-.157.336-1.218.61-2.094 1.025.29-.2.58-.406.863-.612Zm1.481-.56c.122-.088.223-.168.344-.261l.134-.043c-.108.089-.229.18-.34.265l-.138.039Zm-21.41-.315.003.156-.604.031a4.072 4.072 0 0 1-.003-.156l.604-.031Zm-.904.202a1121.981 1121.981 0 0 1-.855.043l-.001-.026.427-.1.429.083Zm5.027 5.35c-.003-.017-.008-.034-.01-.051l.381-.084.192-.042a.451.451 0 0 1 .01.05l-.191.043-.382.084Zm-25.527 5.745c-.055-.09.341-.223.678-.364.513-.039.487.049.481.16l-1.159.204Zm19.072-11.05c0-.033.275-.046.275-.013.002.033-.274.046-.275.013Zm-13.613 9.758c-.354.178-.335.295-1.156.319.327-.131.649-.265.975-.397.249-.029.485-.05.729-.08-.034.082-.363.064-.548.158Zm25.223-5.591-.412.176-.142.033c-.011-.05-.02-.102-.03-.153l.584-.056ZM147.904 6.73l.156.15-.903-.013.3-.221.447.084Zm21.711-1.184c.318.03.514.055.462.133-.2.01-.405.02-.614.032l-.003-.156.155-.009Zm-.722.09.003.105-.285.015c-.002-.035-.001-.07-.003-.104l.285-.015Zm-21.539 9.187-.984.264-.04-.095-.571.067 1.427-.309.565-.226-.251.266.877-.107-.559.2-.464-.06Zm-4.597-7.755c0-.033.285-.043.285-.01.001.032-.284.043-.285.01Zm-23.781.372.876-.034-.738.241.002-.156-.738.007.291.206c-1.539-.072-1.027-.316.3-.368l.007.104Zm31.945 6.456-.01-.05.575-.124.01.05-.575.124ZM20.765 3.351h.002c-.291-.021-.19.05-.18.088.612.06.852.182 1.46.24h.003c.012-.093-.355-.162-.566-.261l.602-.05c-.44-.005-.88-.01-1.321-.017Zm67.918 4.065c0 .035-.004.07-.005.104l-.586-.014c0-.035.002-.07.005-.104l.586.014ZM58.57 6.248l.431.129-.584-.033.008-.104.145.008Zm119.259.013a4.77 4.77 0 0 0 .474-.225 3.26 3.26 0 0 1-.28.29 3.465 3.465 0 0 1-.118.072l-.076-.137Zm-21.533.15c-.002-.034.278-.048.279-.015.002.032-.278.047-.279.014Zm-49.679 1.216c0 .035-.003.07-.003.104l-.296-.001c0-.035.003-.07.003-.104l.296.001Zm-3.871-.077c.295.048-.361.171-.496.15-.297-.05.362-.172.496-.15Zm62.265 3.43c.368-.155.265-.212.237-.297l.569-.135c-.246.152-.233.25-.66.425l-.146.007Zm-20.402 4.327a.445.445 0 0 1-.01-.052c.192-.04.385-.082.575-.123a.896.896 0 0 1 .01.052l-.575.123ZM24.397 3.817c.003-.033-.274-.058-.277-.026-.004.033.273.058.277.025Zm89.278 3.867-.883-.076.592-.08.291.156Zm3.828-1.22c.547-.009.99-.101 1.483-.038l-1.188.088c-.024.06.425.083.295.154l.593-.005v.026l-.594.083c-.001-.034 0-.069.001-.104l-.297.002-.003.157-.896-.02c.417.065.265.143.296.233.247-.006.467-.023.588.024.231.091.356.179.3.281-.726-.062-.792-.173-.888-.305-.807.017-.714.116-1.166.187-.946.149-1.314.063-1.461-.119-.911.13-1.441.131-2.359.007.119.086-.425.127-.565.184-.138.057.213.073.229.108.029.062-.252.088-.24.143.007.03.253.036.23.06-.058.06-.558.088-.866.078.257-.099-.387-.19-.24-.278.239-.141.851-.183.556-.347-.613.066-.754-.056-1.315-.01l.001-.001-1.012-.12.581-.048.01.073c.576.019 1.138.037 1.74.054.023-.103.385-.165.9-.209l.006.103h.884l-.284.078c.093.044.169.006.266 0 .429-.026.533-.007.894.022l-.582-.258 1.024.1 1.022-.16.259.18-.555.134 1.447-.06a35.679 35.679 0 0 0-.285-.208l1.183-.06.008-.208Zm-8.536 1.17a.91.91 0 0 1-.002.053l-.583-.001c0-.018-.001-.035.001-.053l.584.002Zm67.215-2.215c.006-.033.258-.018.259.015-.007.032-.258.017-.259-.015Zm-15.204 6.346-.01-.052.573-.127.009.051-.572.128ZM46.958 5.553c.004-.033-.276-.052-.28-.02-.003.033.279.053.28.02Zm55.253 1.938c-.13.058-.357.086-.299.154l-.582-.084c.27-.05.46-.083.881-.07Zm50.174 6.25c-.007-.033-.011-.068-.017-.102l.592-.021-.575.124ZM25.295 3.846c.003-.033.28-.008.276.024-.003.033-.28.008-.276-.024Zm-9.072-.932c.062.071-.598.066-.888.018.003-.035.008-.07.013-.104l.875.086Zm120.35 14.215c.006.033-.268.093-.273.06-.008-.032.267-.092.273-.06ZM23.408 3.49c-.531-.105-.598-.114-1.033-.068l1.744.29c.105-.1-.276-.135-.71-.222Zm135.813 2.608c0-.033.281-.048.282-.015.002.033-.281.048-.282.015Zm-1.632-.095c.405.038.476.09.433.186l-.285.015a34.954 34.954 0 0 0-.291-.167l.143-.034ZM18.263 3.138c.003-.032.277-.006.273.027-.003.032-.278.006-.273-.027ZM178.19 5.39c-.003.036-.032.064-.029.1.196.057.348.108.473.19-.044.105-.019.062-.504-.09.003-.035.032-.063.029-.1a5.179 5.179 0 0 0-.541-.112c-.04-.101.078-.12.572.012ZM78.097 6.992c0 .017 0 .035-.002.052l-.596-.022c0-.017.002-.034.004-.052l.594.022Zm49.661.218v.156l-.575.011c-.056-.05.193-.174.575-.167Zm22.061-.667.001.052-.582.026-.002-.052.583-.026Zm-74.91.371-.038.009.068.006-.03-.015c.185-.04.37-.082.556-.124l-.873-.034.317.158Zm26.429.413-.302.205-.882-.01c.05-.068.557-.13.266-.203-.08-.02-.91.012-.398-.06.425.023.882.045 1.316.068Zm66.431 3.215c-.263.025.156-.105.07-.152-.061-.03-.41-.015-.28-.116.77-.131.791 0 .21.268Zm-45.585-3.11c-.001-.034.272-.037.275-.004-.003.032-.276.036-.275.003Zm19.405-.607.001.105-.29.01-.001-.104.29-.01Zm-75.236-.3c.003-.034-.275-.047-.277-.014-.002.032.276.046.277.013Zm21.168.653c.607.008 1.101.11 1.61.04l.145.03c-.59.097-1.344.082-1.755-.07Zm50.522-.989-1.012.1-.723-.02.267.07-.411.086-.429-.035c.068.09-.379.12-.532.198-.045.023.187.023.148.048-.086.052-.28.08-.213.136l1.027-.133.891.128.7-.073c-.158.08.204.109.206.176-.005.068-.369.119-.203.189l-.579-.008.287-.14c-.691.033-1.138.03-1.595-.056l-.145.004c.041.073-.41.219-.883.234.107-.164-.366-.305-.001-.469a822.255 822.255 0 0 1-2.37.063c-.046-.138.685-.165 1.336-.192.414-.006.742.06 1.173.017.732-.074.14-.207.154-.313-.685.046-1.765.189-1.786-.004l.909-.056-.011-.072.74.084c.147-.04.294-.078.442-.117.053.066-.18.102-.293.165.194-.009.385-.012.578-.016l.013.103c.982-.042.89-.213 1.303-.352.339.085.663.17 1.012.255ZM11.836 2.446c.005-.032.283-.004.28.029-.004.032-.283.004-.28-.029ZM153.354 6.35c0-.033.274-.046.275-.014.001.033-.274.046-.275.014Zm-13.162 10.123-.424.119.415-.17.445-.017-.436.068Zm6.807-10.068.455.06v.05c-.301.057-.605.114-.884.169l.282-.273.147-.006Zm-24.821.844c-.575.06-1.155.12-1.74.178l.874-.115-.58-.045.437-.11 1.009.092Zm40.557-1.58c.003.052.003.104.004.156l-.298.017a8.135 8.135 0 0 1-.004-.156l.298-.017Zm-8.048 7.638c.119-.001-.571.267-.832.27-.119 0 .573-.268.832-.27Zm4.232-7.297c-.001-.033.284-.048.284-.015.002.033-.283.048-.284.015Zm-22.517 13.14-.003.104c-.592.006-.899-.054-.879-.157.292.019.587.037.882.053ZM107.058 7.264c.641.003.922.013 1.528.054.34.023.5.014.382.109l-1.461.048c0-.052.003-.104.005-.157l-1.18.047c-.092-.12.197-.104.726-.101Zm-71.79-2.863 1.44.219.017-.156-1.456-.063ZM178.79 6.196l-.074-.074c.126-.131.212-.282.166-.395a.922.922 0 0 0-.098.028.34.34 0 0 0-.12-.12.437.437 0 0 1 .313.042c.078.194-.053.376-.187.52Zm-22.797-.083c-.001-.033.28-.047.28-.015.002.033-.279.048-.28.015Zm3.028 6.35a.875.875 0 0 1-.011-.05l1.158-.202-.123.134-1.024.118ZM130.726 6.94l-.291.214-.437-.2.171-.027.557.013Zm30.862 4.93c.003.033-.261.092-.268.06-.006-.033.26-.092.268-.06Zm2.888-.576-.021-.102h.001l.284-.067c.008.034.013.069.019.103l-.283.066ZM39.104 4.491c-.553-.066-.447-.022-.632.02-.265.06-.623.048-.577.15.296.015.699.082.876.036.223-.057.354-.121.333-.206Zm126.8 6.464-.022-.101.856-.21.006.025c-.25.118-.424.195-.84.286Zm7.693-2.41-.448.045.555-.193c.012.033.021.066.031.1l-.138.048Zm4.415-1.937c.013.032-.221.164-.237.134-.014-.028.217-.16.237-.134ZM13.322 2.414l-.005.052-.589-.06.006-.051.588.06Zm91.521 4.89a.91.91 0 0 1-.002.052c-.199 0-.403-.002-.592-.004 0-.017 0-.034.002-.052l.592.004Zm66.383-2.124c-.004-.032.269-.045.276-.012-.005.033-.279.045-.276.012Zm-27.691 10.784-.018-.102.287-.062.018.103-.287.061Zm-3.555-9.499c.374.027.392.129.73.155.51.04.969-.048.877.101-.476-.02-.959-.037-1.444-.056-.055-.066-.106-.135-.163-.2Zm35.12 1.507c.011.032-.249.13-.259.098-.012-.03.248-.128.259-.098ZM59.623 5.916l.43.101.149-.018c-.143-.034-.287-.067-.43-.102l-.149.019Zm98.398-.014c0-.033.266-.047.268-.014 0 .033-.266.047-.268.014Zm-2.04.03c.002.034.001.069.003.103l-.299.016-.003-.105.299-.015Zm5.649 6.115c-.007-.034-.012-.069-.02-.103l.573-.128c-.134.066-.269.132-.408.198l-.145.033ZM42.908 4.85l.43.11h-.002l.291.02.447-.073-1.164-.083c0 .009 0 .017-.002.026Zm98.604 11.523c.006.033-.267.092-.273.06-.006-.033.267-.092.273-.06Zm.657-9.752c-.001-.033.27-.043.271-.01 0 .033-.271.043-.271.01Zm13.155 6.858c-.089-.052.552-.236.842-.289-.045.08.181.06.315.092l-1.157.197ZM57.868 5.843l.146.009.448-.08-.586-.033-.008.104ZM18.29 2.853 18 2.825c.003-.035.008-.069.012-.103l.29.027c-.003.035-.008.07-.012.104Zm114.623 15.508c.022.025-.261.128-.261.097-.025-.03.264-.135.261-.097ZM105.308 6.889c.327 0 .538.052.885.06.408.01.905-.002 1.328.005.08.128-.293.108-.887.1l.296.105c-.444.032-.885.067-1.336.097-.216-.008-.348-.087-.437-.101-.495-.078-.918-.1-.896-.22.41.014.644-.047 1.047-.046Zm44.839-.777c.134-.027.774.072.483.132-.131.026-.778-.073-.483-.132Zm-48.935.954c.389-.015 1.204-.025 1.303.063-.583.03-1.171.059-1.761.086.166-.036.176-.138.458-.149Zm23.346-.008v.052l-.593.01.001-.053.592-.009Zm24.391-.916c.102-.054.591-.059.856-.067-.125.066-.445.136-.714.186-.395.073-.477.062-.747.009h.001c.392-.064.413-.027.604-.128Zm29.895-.762c-.02.028-.041.056-.06.085a1.475 1.475 0 0 0-.262-.132c.013-.033.028-.064.041-.096.072.027.206.09.281.143Zm-76.018 1.23c.151.086.349.154.489.244.141.09.258.22.353.308.054.052-.509.037-.549.024-.271-.096-.142-.162-.893-.163.004-.018 0-.035.003-.052l.58.004c.007-.122.01-.242.017-.364Zm4.697.578c.002-.033.279-.032.278.001 0 .033-.279.032-.278-.001ZM1.333 1.025l.886.1.006-.052-.886-.1-.006.052Zm171.081 3.87c.002.034.001.069.003.103l-.294.012a3.609 3.609 0 0 1-.002-.104l.293-.012Zm-128.05.034.58.04.004-.051-.58-.041-.003.052Zm96.756 11.717-.447-.01.573-.124c.007.034.012.069.018.103l-.144.03Zm-15.093-9.717-.001.104-.292.006c-.001-.035.001-.07.001-.104l.292-.006Zm44.033-2.031.302.193-.298.015a40.16 40.16 0 0 0-.618-.176l.614-.032ZM37.025 4.383l.593.046.003-.052-.592-.046a9.034 9.034 0 0 0-.004.052Zm57.553 2.664c.002-.033-.276-.038-.278-.006-.002.033.277.039.278.006Zm65.943-1.62c.408.037.479.09.435.185-.475.056-1.001-.03-1.161-.093h-.002l.728-.092Zm-68.6 1.594.299.006c0-.035.004-.07.005-.104l-.299-.006c0 .034-.004.07-.004.104Zm65.519-1.218-.293-.194.571.023c.19-.063.375-.125.569-.188-.284.12-.562.24-.847.359Zm20.416 1.133c.017.029-.242.165-.251.132-.019-.026.239-.162.251-.132Zm-90.624-.052c.002-.032-.277-.04-.278-.007-.002.033.278.04.278.007Zm17.914.266.597.004.003-.105-.597-.003-.003.104Zm24.116-.258c.001-.033.281-.039.281-.006.001.033-.281.039-.281.006Zm14.975-.583.002.104-.594.023c.148-.04.297-.08.444-.122l.148-.005Zm-49.643.556c-.002.035-.004.07-.004.104l1.17.073c-.01-.135-.467-.175-1.166-.177ZM34.704 4.12c.004-.032-.273-.055-.275-.022-.003.033.273.055.275.022Zm84.281 2.93c0-.033.279-.036.279-.003 0 .033-.28.035-.279.003ZM31.192 3.833c.002-.033-.276-.056-.279-.024-.003.033.276.056.279.024Zm86.904 3.226c0-.033.281-.035.28-.003 0 .033-.281.035-.28.003Zm22.763 11.826c-.041-.062-.314-.072-.316-.04 0 .034.257.042.316.04ZM21.533 3.004a1146.7 1146.7 0 0 1-.59-.055c.038-.055-.026-.096-.28-.157l.6-.022.27.234ZM139.064 18.84c-.003-.033.28-.035.279-.002 0 .033-.282.035-.279.002ZM17.732 2.589l-.005.052-.581-.056.005-.052.581.057Zm91.548 4.5c0-.034.275-.033.274 0 0 .032-.275.032-.274 0ZM45.243 4.885l.29.02a2.79 2.79 0 0 0 .01-.103l-.29-.02a1.794 1.794 0 0 0-.01.103Zm56.693 2.108c-.223.068-1.083 0-1.478.015-.035 0-.162.077-.436.041-.116-.015-.133-.026-.146-.053.185.013.403-.003.582.012.016-.028.007-.036.008-.058-.247.022-.245-.05-.278-.053-.224-.019-.392.003-.614-.01l.018-.007c.026-.015-.03-.042.149-.042.074 0 .204.002.283.004.223.005.058.037.164.056.107.018.343.002.279.053.201.004.393.004.59.006-.193-.045-.388-.09-.581-.137.197-.04.393-.082.589-.123l.871.296ZM44.37 4.799c.003-.033-.272-.052-.274-.02-.004.033.272.052.274.02Zm29.077 1.493c-.563-.032-.96-.035-1.184.055.565.033.96.036 1.184-.055ZM38.81 4.417l.59.044a2.59 2.59 0 0 0 .011-.104l-.59-.044a2.59 2.59 0 0 0-.011.104Zm84.867 2.524c0-.032.281-.037.281-.004.001.033-.281.037-.281.004ZM38.511 4.368c.004-.033-.277-.055-.28-.022-.004.033.277.054.28.022Zm129.716 6.237c.009.032-.262.106-.268.074-.01-.031.262-.106.268-.074ZM59.923 5.723c.003-.033-.274-.048-.275-.015-.003.033.273.048.275.015Zm-5.554-.607c-.02.053.014.132-.018.18-.066.105-.39.044-.748.086l.161-.199-.574-.087h.002c.386.006.777.012 1.177.02ZM12.78 2.071c.005-.032.28-.004.277.028-.003.033-.282.004-.277-.028Zm39.53 3.074-.008.104-.732.006-.143-.035.302-.111.582.036Zm29.344 1.473c.003-.033-.274-.042-.276-.01-.002.034.275.043.276.01Zm47.307-.266-.3.214-.449-.095c-.659.135-1.256.268-1.893.401h-.002l.307-.211.561-.014-.144-.258c.292-.039.574-.078.873-.117l1.047.08Zm-86.333-1.73c.003-.033-.273-.053-.276-.02-.004.032.273.053.276.02Zm105.12 1.464-.45.098-.152-.02.451-.097.151.02ZM24.783 3.092l-.45.064-.43-.117.003-.026.877.08ZM90.163 6.8c.001-.033-.272-.04-.275-.007-.002.033.273.04.274.007Zm86.469 1.034c-.019-.048-.037-.097-.057-.145.178-.076.366-.16.543-.241-.022.083.188.021.332.016-.271.13-.55.256-.818.37ZM86.368 6.627l-.006.104.885.023c0-.017.003-.034.003-.052-.374 0-.555-.045-.882-.075ZM57.6 5.515l-.003.052-.588-.034.003-.052.588.034Zm-1.472-.086-.003.053-.59-.035c0-.018.002-.035.003-.052l.59.034Zm75.765.908-.291.372-.289-.202c-.505.062-.861.1-1.318.03l-.418.088.266.046-.589.039c.098-.063.193-.127.289-.19l.889-.045.004-.156 1.457.018Zm-1.741.38c-.001-.033.277-.04.277-.007.001.033-.277.04-.277.006Zm-30.578.17c.03.022-.032.036.006.055-.112-.013-.254.001-.283-.031-.03-.03.209-.012.277-.024Zm46.996-.75c0-.033.269-.044.269-.012.001.033-.269.044-.269.011Zm-2.636-.234c.049.091-.407.147-.243.243.126.075.549.127-.351.145-.074-.074-.168-.15-.248-.224.281-.055.57-.109.842-.164Zm-24.658.858c.424-.013.615.019.878.07a3.361 3.361 0 0 1-.88.087c-.001-.052.001-.105.002-.157ZM60.803 5.667c.002-.033-.273-.048-.274-.015-.003.033.272.047.274.015ZM17.758 2.46c.003-.032.277-.006.274.027-.003.032-.279.006-.274-.027Zm60.374 3.96a2.58 2.58 0 0 1 .006-.104l-.595-.022.59.126Zm70.8-.516c.002.035.002.07.002.104l-.294.014c-.002-.035-.001-.07-.002-.105l.294-.013Zm-25.099.227c.293.024.151.104.144.155.153-.02.404-.062.59-.062l.588.2-1.181.018c-.005-.052.013-.105.001-.156-.537.067-.663.105-.597.216.911 0 .864.125 1.184.243l-1.185.07-.152-.102c-.455.046.091.127-.751.115h.002l.902-.247c-.693-.117-.943.02-.901.143l-.861-.067c.278-.09.966-.124 1.302-.198.48-.109.345-.231.915-.328Zm-55.1-.095.29.013.007-.104a137.22 137.22 0 0 0-.29-.013l-.007.104Zm73.433.22c0-.032.27-.042.27-.01 0 .034-.27.044-.27.01Zm-47.283.536c.002-.033-.277-.038-.278-.005-.001.032.277.038.278.005Zm44.357-.563-.896.186-.001-.157.897-.029Zm-77.846-.583.143.034c.147-.044.298-.089.452-.133l-.296-.015-.299.114Zm77.371 12.909c.001.035-.001.07-.002.104l-.587.007.003-.105.586-.006ZM19.797 2.605c.004-.033.282-.007.28.026-.004.033-.284.006-.28-.026Zm158.176 4.563c.017.03-.248.169-.257.135-.02-.025.245-.164.257-.135Zm-93.537-.596.04-.003-.004-.001h.007c-.158-.037-.315-.073-.466-.11.138.039.28.077.423.114Zm75.529 6.19c.007.033-.268.093-.275.061-.005-.032.269-.093.275-.06ZM6.959 1.305c.004-.033.28-.003.275.03-.005.032-.28.002-.275-.03ZM76.36 6.276c.003-.032-.27-.043-.274-.01-.002.033.273.043.274.01Zm49.676.418c0-.032.276-.037.275-.004 0 .033-.275.037-.275.004Zm-52.268-.858c.232.16.077.343 1.145.41-.353-.128-.51-.203-.273-.323l-.87-.087h-.002Zm99.304 3.496-.016-.05c.181-.061.364-.125.549-.19-.008-.033-.014-.067-.02-.1l.278-.098c.107.018.218.034.327.05-.373.133-.748.263-1.118.388Zm2.46-1.023c.012.03-.252.132-.263.1-.012-.03.252-.13.263-.1Zm-33.948-2.161a5.464 5.464 0 0 0-1.166.118c-.258.051-.403-.01-.584-.03.344-.056.69-.11 1.031-.166l.719.078Zm-86.324-.9c.002-.033.283-.016.28.016-.003.033-.283.016-.28-.017Zm-5.275-.33-.148.017-.433-.106.149-.017.432.107Zm102.466.72c.001.034 0 .069.002.104l-.595.028c0-.035 0-.07-.002-.104l.595-.029Zm-46.691.942-.905.02c-.3.076-.59.153-.878.23l.303-.31c.207-.008.507.014.712.004.35-.016.005-.091.327-.102l.441.158Zm43.168-.936c.903-.031.93.08.878.221-.624-.03-.947-.088-.878-.221Zm-23.19.926c.069.063-.588.134-.881.118.001-.034.002-.069.001-.104l.88-.014Zm-50.529-.364.291.011.007-.104-.291-.011-.007.104Zm71.935-.25.001.026-1.159.048c-.052-.072.135-.114.429-.174.242.034.47.068.729.1Zm-81.163-.259-.448.083c.195.01.391.02.586.028l.008-.103-.146-.008Zm-8.477-.552c.488.029.962.126 1.287.202a657.96 657.96 0 0 1-2.354-.056l1.067-.146Zm76.154 1.277c0-.033.283-.04.282-.008.001.033-.282.04-.282.008ZM47.932 4.758c-.633-.125-.93-.044-1.624-.118-.29-.03-.908-.2-.724-.251l1.028.173 1.348-.116c-.008.104-.02.207-.028.312Zm120.937-.059c.001.018.003.035.002.052l-.575.031a.906.906 0 0 1-.002-.052l.575-.03Zm-116.824.247c.003-.033.278-.015.275.017-.002.033-.278.015-.275-.017Zm53.719 1.765c0-.033.282-.031.281.001 0 .033-.282.032-.281-.001Zm66.93-2.349.001.156-.579.023-.001-.156.579-.023Zm-19.077 1.01c-.052.073.062.268-.586.176-.034-.005-.012-.105-.286-.111-.218-.005-.659.023-.593-.046.389-.037.786-.072 1.171-.109l.294.09ZM32.719 3.462l-.01.105-.575-.152.585.048Zm83.317 3.195c-.001-.033.273-.035.272-.002.001.033-.273.035-.272.002Zm44.039-1.57c.002.034.001.069.003.103l-.293.017-.003-.104.293-.017Zm15.508 3.37c.013.03-.253.132-.263.101-.012-.03.253-.132.263-.101ZM79.047 6.165c.002-.032.282-.023.28.01-.002.033-.283.023-.28-.01Zm69.29-.547c.001.052 0 .104.003.156l-.595.026c-.059-.05.196-.18.592-.182ZM40.043 3.987l-.01.103-.59-.044.01-.103.59.044Zm81.437 2.388c.222-.02.481-.002.71-.012-.335.074-.672.148-1.013.221l-.098-.01c-.437-.058-.073-.158.401-.199Zm-27.461.166.588.011a.7.7 0 0 0 .003-.052l-.589-.01a.7.7 0 0 0-.002.051Zm25.268.038c0-.033.279-.036.278-.003 0 .033-.278.035-.278.003Zm-51.996-.897c.003-.033-.272-.046-.275-.013-.002.033.274.046.275.013Zm72.244.38c.001.018.002.035.001.053l-.894.03a.455.455 0 0 1 0-.053l.893-.03Zm-24.375.574-.875.003.001-.052c.37.008.551-.033.876-.056l-.002.105ZM56.452 5.083a9.04 9.04 0 0 0-.003.052c-.392-.04-.784-.08-1.177-.122l.003-.052 1.177.122Zm26.704.93c.62.077.93.158.854.286l-.29-.112a915.22 915.22 0 0 1-.863-.027h-.001l.3-.147Zm25.846.606c0-.033.276-.032.275 0 0 .033-.276.033-.275 0Zm-56.078-1.8-.589.067c.002-.035.006-.07.01-.104l.579.036Zm73.396 1.636h.001l-.582.01v-.104l.145-.003.436.097Zm-23.778-.107-.008.26-.877-.008.096-.03c.2-.072.242-.142.206-.228l.583.006Zm-4.722.179c-.002-.033.278-.03.277.004-.002.032-.28.028-.277-.004ZM64.677 5.503c.001-.033.28-.02.278.014-.003.032-.28.018-.278-.014Zm110.975 3.123c-.012-.033-.022-.066-.035-.098.185-.072.37-.145.556-.22.013.032.023.065.036.097-.186.076-.372.149-.557.22Zm1.361-.645.131-.086c.151-.04.288-.075.444-.121l-.131.09c-.145.04-.293.08-.444.117Zm-65.382-1.49c0 .034-.003.068-.003.103h-.597l.003-.103h.597Zm53.718-1.857c.002.035.001.07.003.104l-.3.017-.003-.104.3-.017Zm-96.58 1.012c.002-.032.276-.02.273.013-.003.033-.276.02-.273-.013Zm62.11.298c.571.119 1.201.062 2.009.058.296-.002.172.098.462.115l-.877.101.15-.108-.725-.034c-.005.035-.007.07-.012.104l-.856.02c-.047-.119-.807-.139-.151-.256Zm23.021-.795.577.18-.86.043-.005-.209.288-.014ZM50.893 4.638l-.003.052-.585-.038.004-.052.584.038Zm-4.85-.375c.324.086.615.041 1.034.071l-.747.053-.438-.108.151-.016Zm-1.315-.014c.002-.032.277-.013.274.02-.003.033-.278.013-.274-.02Zm32.236 1.633-.863.045c-.066-.072.075-.14.15-.2l.043-.05c.037-.05.087-.1.408-.092.085.1.176.198.262.297Zm92.479-1.448c0-.033.294-.048.293-.015.003.033-.291.048-.293.015Zm-22.305 1.027c-.311.03-.581.059-.87.088h-.001l-.284.169a7.246 7.246 0 0 1-.003-.209l1.158-.048Zm-2.603.289c0-.033.277-.044.277-.011.002.032-.277.043-.277.01Zm-80.887-.482.436.127-.591-.03c.001-.035.005-.07.008-.105l.147.008Zm52.962 1.046-.723.161-.145-.025c.263-.04.329-.072.292-.132l.576-.004Zm62.699.43.002-.002c.04-.052.088-.117.137-.194.149-.158.447-.522.306-1.095.065.169.082.371.065.521-.125.484-.351.629-.51.77Zm-1.013-2.242a4.711 4.711 0 0 0-.097-.29c.172.033.329.066.54.132.101.032.178.059.296.11.124.054.246.118.366.202-.488-.214-.808-.171-1.105-.154ZM52.348 4.73c-.601-.033-1.047-.056-1.448-.17l.434.047.57-.009.444.132Zm108.125 8.321.455.006-.431.122-.422.12c.134-.082.264-.164.394-.246l.004-.002Zm15.518-9.025c.097.074.192.148.283.223-.56-.067-.672-.137-.6-.235.108.003.214.007.317.012ZM144.229 5.58l-1.04.197-.151-.02.298-.195.893.018Zm-77.93-.231.431.125-.585-.028c.002-.035.004-.07.008-.105l.146.008Zm95.821-.558c0-.033.284-.049.284-.016.002.033-.282.049-.284.016Zm-48.121 1.538-.002.104-.293.001c-.001-.034.001-.07.002-.104l.293-.001Zm-.589.054-1.182.055c-.001-.035.001-.07.002-.104.463.01.782-.016 1.182-.055l-.002.104ZM55.301 4.65l-.013.156-.744.008-.147-.035.609-.146.295.017Zm-1.492.015c-.002.035-.005.07-.009.104l-.57-.14.58.036Zm125.307 2.488c-.539.42-1.243.612-.51.169.232-.146.621-.298.51-.17Zm-70.406-.768c0 .017 0 .035-.002.052l-.583-.001c0-.018-.001-.035.001-.053l.584.002Zm-26.717-.407a.7.7 0 0 1-.003.052l-.585-.019a.65.65 0 0 1 .004-.052l.584.019Zm-32.26-1.52-.003.053-.587-.038c0-.018.002-.035.003-.052l.587.038Zm98.749.946.442.085-.589.026c0-.035.001-.07-.001-.105l.148-.006Zm-22.302.69c.827.087 1.533-.04 2.484-.048l-.747.164c-.632-.002-1.251-.005-1.884-.009l.147-.107Zm20.953 9.951-.288.062.019.102.288-.061c-.006-.035-.011-.069-.019-.103ZM94.627 6.11l-1.176-.048.286.214-1.182-.075c-.11-.24.614-.258 1.786-.278l.286.187Zm83.401 1.885c-.564.249-.972.43-1.564.636-.59.2-.859.263-.78.097h.001c.524-.192.807-.175 1.368-.402.569-.233.859-.477.975-.33Zm-89.566-1.86c0-.033.279-.026.276.007 0 .032-.277.026-.276-.007ZM157.99 4.99l-.283.015c-.056-.096.017-.172.563-.239h.002c-.102.075-.188.15-.282.224Zm-24.332 1.014c-.001-.033.283-.04.283-.008.001.033-.283.04-.283.008ZM84.62 5.952c-.001.035-.004.07-.006.104l-.59-.017c0-.035.002-.07.005-.104l.59.017ZM9.925 1.095c.006-.032.278-.003.274.03-.004.032-.278.003-.274-.03ZM100.5 6.301c.001-.033.28-.03.279.003 0 .033-.28.03-.279-.003Zm20.402-.336c.316-.027.34.04.625.035.51-.008.939-.007.521.105l-1.296-.089.865.25-1.16-.09-.001.104h-.001l-.584.007a1.212 1.212 0 0 1 .001-.105l.585-.007c-.055-.075.022-.174.445-.21Zm21.834-.329a.45.45 0 0 1 0 .052l-1.157.043-.001-.104 1.158.01Zm-2.606.137c-.115-.02.609-.162.863-.117.115.02-.604.162-.863.117Zm-48.917.399-.719-.068a.7.7 0 0 1 .003-.053l1.173-.026-.457.147Zm18.665-.151-.307.153-.569.106 1.449-.102c-.717.21-1.764.2-2.316-.027l.291-.132 1.452.002Zm41.678-.784c-.002-.033.283-.046.283-.014.002.033-.283.047-.283.014Zm-72.786.475-.006.105-.593-.022c0-.034.003-.07.006-.104l.593.021Zm71.61-.42c-.001-.033.27-.046.27-.013.001.033-.269.045-.27.013Zm-73.092.445c.002-.032.284-.022.282.01-.002.033-.285.023-.282-.01Zm-2.332-.166c0 .034-.004.069-.006.104l-.876-.035h.002v-.026a3.38 3.38 0 0 1 .88-.043Zm70.445-.143c.002.035 0 .07.002.104h-.002l-.584-.08.584-.024Zm-75.584-.177c.833.05 1.082.104 1.019.253-.193-.06-.39-.12-.584-.182h-1.18c-.044-.118.136-.107.745-.071Zm-.741.149c.002-.033.276-.02.273.012-.003.033-.276.02-.273-.012Zm70.751.105c-.396.08-.304.156-.293.245-.765.023-.953-.053-.894-.18.399-.02.794-.043 1.187-.065Zm19.945-.82-.59.137c-.002-.035-.001-.07-.003-.104l.593-.032Zm-22.745.833c.784.11-.026.233-.723.334-.096-.066-.197-.133-.291-.2.217-.013.504-.003.703-.02.336-.03-.002-.092.311-.114Zm-25.68.738c.001-.033.283-.033.282 0 0 .032-.283.032-.282 0Zm44.62-1.29c0-.032.279-.047.279-.014.001.033-.278.047-.279.014Zm-48.42 1.154a8.152 8.152 0 0 0-.005.156l-.293-.001.004-.157.294.002ZM51.213 4.423c.002-.033.279-.015.275.018-.002.032-.278.015-.275-.018Zm-1.46-.094c.001-.033.28-.015.276.018-.003.033-.28.014-.277-.018Zm12.586.558c-.058.063.166.108.285.172l-.595-.032.012-.155.298.015Zm22.288.91c-.2.028-.404.057-.595.086.002-.035.002-.07.005-.104l.59.017Zm-3.493-.16-.009.156c-.392.001-.637-.126-.578-.176l.587.02ZM49.17 4.238c.003-.033.28-.015.277.018-.002.032-.28.014-.277-.018Zm101.778.922c0-.033.287-.046.287-.014 0 .033-.286.047-.287.014Zm-46.366.943c-.204.033-.389.067-.585.1 0-.035.003-.07.003-.104l.582.004Zm-3.245-.08c.298.05-.363.171-.499.15-.299-.05.365-.171.499-.15Zm41.099-.637c.395-.029.66.08.6.134l-.885.033c.125-.064.343-.102.285-.167Zm-29.325.537c.481-.085.664.035.612.09h.866l.144.155-.729-.078c-.419.1-.873.031-1.469.03.275-.022.489-.181.576-.197ZM83.176 5.78c0-.033.276-.024.273.008 0 .033-.276.025-.273-.008Zm17.031.232c0 .034-.002.07-.004.104l-.296-.004c0-.035.003-.07.004-.104l.296.004Zm-34.908-.947c.002-.033.28-.019.277.014-.001.032-.28.019-.277-.014Zm51.029.992-.001.052-.577.003c0-.017-.001-.034.001-.052l.577-.003Zm41.084-1.4c.002.035.001.07.003.104l-.288.015a1.816 1.816 0 0 1-.003-.104l.288-.015Zm-25.227 1.047c.466-.301 1.714-.16.718.087l-.323-.099-.395.012Zm-4.412.108c.263-.059 1.003.043.884.07-.262.058-1.007-.044-.884-.07Zm-44.302-.127c.001-.033.275-.025.273.008-.002.033-.275.025-.273-.008Zm63.956-1.07c.849-.034.832.112 1.487.144l.143-.163.87.006.999-.144c-.097.057-.188.114-.282.17 1.079-.032 2.194-.068 3.239-.103l.291.167c-.799.187-1.383.073-2.336.089l-.298.146-.886.014-.145.11c-1.073.067-.342-.143-1.301-.097l-.289.144-.443.045c-.397-.05-.789-.102-1.199-.152-.713.108-1.585.11-2.303.141-.634.028-.872.042-1.512.059h.003c-.331.009-.959.039-1.313.053-.097-.062-.202-.023-.289-.108-.082-.086.299-.104.887-.153.239-.02.481-.124.726-.155.155.061.303.127.454.19 1.244-.035 1.97.063 2.039-.238.385.003.735.006 1.145.007l.616.076-.303-.248Zm-71.292.741-.587.082.007-.104.58.022Zm64.423-.057c.147.02.293.042.438.063l-.581.098-.001-.156.144-.005Zm17.701-1.052c-.105.04-.19.08-.286.12.473-.008 1.006-.02 1.494-.029-.147.077-.294.155-.445.232-.991.02-1.83.03-2.774.044a.72.72 0 0 0-.025-.033c-.036-.066.097-.059.45-.093.402-.04.618-.084 1.007-.109-.002-.034.006-.068.008-.102l.571-.03Zm-33.983 1.358-.007.076-.883.198.301-.37c.196.033.393.065.589.096Zm-24.946.318c0-.033.282-.03.28.004 0 .032-.282.028-.28-.004Zm37.263-.392h.001l-.581.018c-.002-.035-.001-.07-.001-.105l.145-.004.436.091Zm20.217-1.469c.214.068.394.136.592.204l-.862.02-.016.102c-.484.044-.975.087-1.476.13l.306.194-.891.045c-.119-.092.132-.147.431-.226.19-.052-.008-.073.197-.113.203-.04.515-.03.717-.093.202-.062-.038-.104.18-.165.107-.03.673-.051.822-.098ZM82.018 5.51a.7.7 0 0 1-.003.052l-.583-.02c0-.017 0-.034.002-.051l.584.019Zm53.411-.1v.103l-.589-.087.589-.017Zm-6.167.102c.001.052-.001.104-.001.156l-.894.02V5.53l.895-.019Zm-8.216.137c.001.052-.002.104-.001.156-.387.02-.635-.096-.579-.15.194-.001.387-.004.58-.006Zm-36.1-.208c.736.019 1.419.01 1.771.153-.62-.033-1.125-.096-1.775-.1a9.082 9.082 0 0 0 .003-.053Zm48.704-.034v.104l-.3.008v-.104l.3-.008Zm-3.208.027 1.455-.087-.001.209-2.042-.057.295-.267.293.202Zm43.445-1.863c.001-.033-.284-.026-.285.007.001.033.287.026.285-.007Zm-24.97 1.344.292-.013c-.002-.035 0-.07-.002-.104l-.293.013c.001.035.001.07.003.104Zm-22.582.733c.001-.033.274-.038.274-.005.001.033-.274.038-.274.005Zm34.705 7.957c.007.032.273-.027.269-.06-.008-.031-.275.028-.269.06Zm7.813-9.817c-.001-.033.265-.047.265-.014.002.033-.263.047-.265.014ZM142.73 5.115l.751.024.148-.032-.899-.044v.052Zm-3.201-.095c1.086-.055 1.792.013 2.045.19-1.206.06-1.97.052-2.638-.118l1.183.012-.59-.084Zm-22.01.558c0 .07-.002.14-.003.209l-.299.002.004-.208.298-.003Zm62.229 1.649a4.34 4.34 0 0 1-.687.54c.019.028.035.06.054.088.221-.146.429-.286.703-.55a1.76 1.76 0 0 0-.07-.078Zm-51.68-1.69a.45.45 0 0 1 0 .051l-.586.012v-.052l.586-.012Zm32.119 8.31c.007.032.278-.028.271-.06-.005-.032-.277.028-.271.06Zm5.473-1.165c-.006-.034-.012-.068-.02-.102l-.578.136h.453l.145-.034Zm-71.3-7.047c.002-.032.28-.027.278.005 0 .033-.28.028-.277-.005Zm21.975.004-.002.104-.865.005c-.001-.034.002-.07.001-.104l.866-.005Zm-6.155-.009-.293.13h-.578l.727-.156c.048.01.095.018.144.026ZM52.421 3.978c.004-.033.278-.016.274.017-.002.032-.277.015-.274-.017Zm120.53-.616-.277.166c-.282-.015-.579-.03-.887-.043.353-.089.677-.115 1.164-.123Zm-4.103.251c.224-.065.998.011.874.042-.293.068-.986-.012-.874-.042Zm-46.355 1.808-.002.209-.579-.071.001-.052.431-.084.149-.002Zm52.583 4.284c.01.032.279-.067.268-.099-.01-.03-.278.068-.268.1ZM138.045 5.2c-.001-.033.284-.042.284-.01.002.033-.284.043-.284.01Zm-24.616.35c0 .051-.003.103-.004.155l-.586-.076.443-.08h.147Zm19.622-.388.301.2-.592.016c-.001-.07 0-.14.001-.209l.29-.007Zm-26.664.328c.461-.01 1.232.068 1.467.137-.338.072-.656.084-1.178.073l-.289-.21Zm22.877-.29.294.254c-.636-.045-.962-.11-.889-.242l.595-.013Zm20.225-.493c0-.033-.275-.02-.275.012 0 .033.276.021.275-.012Zm13.323 8.795c-.011-.051-.019-.103-.029-.154l.285-.064c.011.05.021.102.03.153l-.286.065ZM40.434 3.1c.003-.032.282-.011.278.022-.004.032-.281.011-.278-.021Zm105.091 1.542c.439-.077.555-.02 1.014-.044h.001c-.486.161-1.296.114-1.148.308-.192-.035-.39-.07-.581-.107.225-.045.496-.118.714-.157Zm-25.934.865c.001.034-.002.07-.001.104l-.294.003.001-.105.294-.002Zm45.132-1.726c.002.035.001.07.003.104l-.596.034c.134-.042.288-.086.44-.13l.153-.008ZM114.6 5.596l-.001.052c-.291.001-.584.003-.877.003l.001-.052c.293 0 .586-.002.877-.003Zm-26.399-.277c-.49.023-.98.045-1.473.066.001-.052.005-.104.007-.156l1.466.09Zm-2.648-.122-.009.156a3.408 3.408 0 0 1-.886-.103 3.49 3.49 0 0 1 .895-.053Zm25.81.433c0-.033.283-.033.281 0 .001.033-.282.033-.281 0Zm-2.34-.08-.585.104c0-.035.002-.07.003-.104h.582Zm66.401-2.247-.459.072a9.119 9.119 0 0 0-.162-.025l.475-.076.146.029ZM74.709 4.883a2.58 2.58 0 0 1-.007.104l-.577-.127.584.023Zm50.162.45c1.191-.025.325.153-.001.157l.001-.156Zm38.779 7.897c.007.032-.262.093-.269.061-.006-.032.264-.093.269-.06Zm-19.422-8.355c.001-.033.279-.043.279-.01.001.032-.278.043-.279.01Zm-27.596.684c-.001-.033.284-.035.283-.002 0 .033-.286.034-.283.002ZM158.57 4.15c0-.033.285-.048.286-.016 0 .033-.284.049-.286.016Zm-48.095 1.427c.001-.032.272-.033.275 0-.004.033-.276.033-.275 0Zm-26.982-.44-.006.103-.29-.009.006-.104.29.01Zm-1.156.042c0-.033.276-.025.275.008-.003.033-.277.024-.275-.008Zm78.347 8.956c-.439.082-.873.16-1.301.234.116-.095.782-.332 1.28-.45.145-.035.275-.06.375-.069.335-.03-.071.191-.329.277l-.025.008Zm8.73-10.666v.053l-.575.03a.906.906 0 0 1-.002-.052l.577-.03ZM98.746 5.42c0 .035-.002.07-.004.104l-.596-.008.452-.098.148.002Zm72.713 5.765c-.011-.033-.019-.067-.03-.1l.28-.091c.011.033.02.066.03.1l-.28.091Zm-32.813-6.161c.001-.033.282-.042.282-.009.001.033-.282.042-.282.009Zm-.601.02c-.001-.033.285-.043.284-.01.002.033-.284.042-.284.01Zm-26.686.405-.002.104h-.298c0-.034.001-.07.003-.104h.297Zm59.259-2.09c0 .017.002.034.001.051l-.59.03v-.052l.589-.03ZM120.759 5.39l-.001.052-.581.006a.449.449 0 0 1 0-.052l.582-.006Zm49.895 6.058-.015-.05c.155-.053.341-.114.531-.176a.416.416 0 0 1 .016.05c-.191.062-.377.123-.532.176Zm-89.19-6.48c-.001.035-.004.07-.006.104l-.293-.01a2.58 2.58 0 0 1 .006-.103l.293.01Zm89.716-1.743c.002.035.001.07.002.104l-.279.013c-.002-.034-.001-.069-.002-.104l.279-.013Zm-6.345 9.891c.006.033-.266.096-.272.064-.008-.032.264-.095.272-.064Zm-27.093-8.195-.86.079-.001-.105.86-.078.001.104ZM88.79 5.23l-.584-.015.445-.093.144.003c0 .035-.004.07-.005.105Zm44.261-.174a.455.455 0 0 1 0 .053l-.578.014.001-.052.577-.015Zm14.373-.65c.714-.041 1.174-.03 1.192.104-.7.041-1.175.03-1.192-.104Zm21.409-1.114c.002.035.001.07.003.104a79.888 79.888 0 0 0-.576-.073l.573-.03Zm-45.738 1.912c.001.035 0 .07-.001.104l-.599.009.451-.11.149-.003Zm-27.846.056a.7.7 0 0 1-.003.052l-.585-.01a.7.7 0 0 1 .002-.052l.586.01Zm46.329-.494c0-.033.271-.043.271-.01.002.033-.271.043-.271.01Zm37.749-1.187c-.014.032-.032.062-.046.094-.544-.231-1.362-.393-1.237-.445.387.07.763.137 1.283.35ZM108.446 5.34c0 .017.001.035-.001.052l-.584-.001c0-.018 0-.035.002-.053l.583.002Zm-5.573-.136c0 .035-.002.07-.003.104-.37-.013-.547.025-.875.044l.005-.156.873.008Zm21.41.008-.148.028-.443-.072.148-.028.443.072Zm39.417 8.273c.008.032-.263.093-.27.062-.006-.033.264-.094.27-.062ZM66.524 4.263l-.008.104-.584-.028.446-.083.146.007Zm93.819-.498.56-.029a.907.907 0 0 1 .001.052l-.861.048a12.912 12.912 0 0 1-.153-.2c.152.043.304.085.453.129ZM90.837 5.147c0-.033.274-.027.272.006 0 .033-.274.027-.272-.006Zm85.771 4.362c.012.03-.264.141-.274.11-.014-.03.263-.14.274-.11Zm1.169-.5.135-.09c.154-.044.324-.097.48-.147l-.139.098a13.36 13.36 0 0 1-.476.14Zm-45.303-4.146c.424.026.642.092 1.178.074a.455.455 0 0 1 0 .052h-.001l-1.178.03.001-.156Zm-21.998.377-.002.104-.574-.104h.576Zm54.967 7.895c.009.032-.272.098-.275.065-.01-.031.27-.097.275-.065ZM118.721 5.23c.001-.032.28-.035.279-.002 0 .033-.279.035-.279.002Zm-30.79-.203c.001-.033.28-.026.277.007 0 .032-.278.026-.277-.007Zm24.326.16-.002.104h-.296l.002-.104h.296Zm59.225-2.13a.455.455 0 0 1 .001.052l-.583.027c-.001-.017-.003-.035-.002-.052.192-.01.358-.017.584-.027ZM122.798 5.13l-.15.029c-.149-.024-.302-.048-.442-.073l.143-.028.449.072Zm-1.743-.108c.326.02.491.057.865.042l-.434.11c-.294-.044-.484-.076-.431-.152Zm38.107-1.269c0-.032.28-.048.281-.015.001.033-.28.048-.281.015Zm-4.719.17-.568.132a3.628 3.628 0 0 1-.002-.104l.57-.029Zm20.382-.99c.002-.033.308-.032.305 0 0 .033-.304.032-.305 0ZM150.93 4.17c0-.033.286-.047.287-.014.002.033-.286.046-.287.014Zm19.391-1.086-.148.033a59.685 59.685 0 0 0-.456-.055l.152-.034.452.056Zm-7.452 10.75c.008.032-.272.095-.275.062-.01-.031.269-.094.275-.062Zm-49.432-8.652-.586.002.002-.104h.146c.147.033.292.068.438.102Zm-2.36-.022c.002-.032.283-.033.282 0 0 .033-.283.033-.282 0Zm45.79 10.188c.01-.064.133-.135.258-.217l-.573.125.027.068-.575.212c.283-.063.579-.124.863-.188Zm3.708-.947c.008.031-.265.092-.271.06-.007-.032.265-.093.271-.06Zm6.782-11.238.001.052-.602.034a.451.451 0 0 1-.001-.052l.602-.034Zm-29.619 1.393c.002.035.002.07.001.104l-.286.01v-.105l.285-.009Zm-4.97.22c.001-.033.272-.04.275-.007-.003.033-.276.04-.275.007Zm-9.066.184c.001-.033.281-.037.28-.004 0 .033-.281.037-.28.004Zm38.071-1.534.602-.034-.001-.052c-.198.01-.399.022-.602.034l.001.052Zm-2.896 11.509c.008.032-.269.092-.274.06-.007-.032.269-.093.274-.06Zm3.795-11.612.871-.05-.001-.052-.872.05c-.001.017.001.035.002.052Zm-2.921 11.473c.008.032-.267.092-.274.06-.007-.032.268-.092.274-.06Zm1.15-.254c.002.013-.038.03-.089.044-.077.021-.179.036-.183.016-.004-.02.094-.05.172-.062.053-.009.097-.01.1.002ZM110.192 4.85c.001-.033-.273-.033-.273 0 0 .032.273.033.273 0Zm.885-.026h.299l.002-.105h-.298l-.003.105Z"/></svg></svg>